<svg xmlns="http://www.w3.org/2000/svg" viewBox="0 0 2399.37 1511.22">
    <defs>
        <style>.cls-1{fill:#5a189a;}</style>
    </defs>
    <g id="Layer_2" data-name="Layer 2">
        <g id="Layer_3" data-name="Layer 3">
            <path class="cls-1"
                d="M295.82,1164.71q-14.62,0-23.88,13.16L162.63,1341.18,56.53,1177.87a28,28,0,0,0-11.45-9.5,33.1,33.1,0,0,0-14.38-3.66A30,30,0,0,0,9,1173.49a28.23,28.23,0,0,0-9,21v282.16q0,12.69,7.8,21.21t20,8.52q12.68,0,20.48-8.52T56,1476.61V1275.89L136.45,1403a41.11,41.11,0,0,0,11,9.26,21.76,21.76,0,0,0,12.91,3.41,22.64,22.64,0,0,0,13.4-3.41,41,41,0,0,0,11-9.26l80.41-122.58v196.16a28.76,28.76,0,0,0,8.53,21.21q8.53,8.52,22.18,8.52t21.92-8.52q8.29-8.52,8.3-21.21V1194.45q0-13.17-9.26-21.45A30.6,30.6,0,0,0,295.82,1164.71Z" />
            <path class="cls-1"
                d="M547.62,1182.75a28.94,28.94,0,0,0-11-14.38,28.61,28.61,0,0,0-16.33-5.13,25.59,25.59,0,0,0-17.3,4.4,31.78,31.78,0,0,0-11.95,15.11L369.74,1474.19a32,32,0,0,0-1.47,9.26c0,7.13,2.12,13.15,6.34,18s10.72,7.32,19.5,7.32a25.68,25.68,0,0,0,15.35-5.11,30,30,0,0,0,10.47-14.37l25.29-59.48H590.54l25.31,59a34.73,34.73,0,0,0,11,14.63,25.52,25.52,0,0,0,15.84,5.36q10.23,0,18.76-7.8c5.69-5.18,8.53-12.19,8.53-20.94a32.85,32.85,0,0,0-2.43-11.7Zm-78.57,191,48.49-114,49,114Z" />
            <path class="cls-1"
                d="M936.38,1219.3q-13.65-24.87-35.82-39.48T853,1165.2H741.93a29.13,29.13,0,0,0-29.73,29.73v281.68q0,12.69,7.8,21.21t20,8.52q12.67,0,20.48-8.52t7.8-21.21v-92.1H853q25.34,0,47.52-14.87t35.82-39.72Q950,1305.08,950,1274.85,950,1244.16,936.38,1219.3Zm-50.69,81.62a61.54,61.54,0,0,1-14.62,20.23q-8.77,7.81-18,7.8H768.25V1221.24H853q9.26,0,18,7.56a62,62,0,0,1,20.47,46A60.4,60.4,0,0,1,885.69,1300.92Z" />
            <path class="cls-1"
                d="M1127.61,1182.75a28.9,28.9,0,0,0-11-14.38,28.59,28.59,0,0,0-16.33-5.13,25.62,25.62,0,0,0-17.3,4.4,31.82,31.82,0,0,0-11.94,15.11L949.72,1474.19a32.32,32.32,0,0,0-1.46,9.26c0,7.13,2.12,13.15,6.34,18s10.72,7.32,19.49,7.32a25.69,25.69,0,0,0,15.36-5.11,30.11,30.11,0,0,0,10.47-14.37l25.29-59.48h145.31l25.31,59a34.89,34.89,0,0,0,11,14.63,25.57,25.57,0,0,0,15.85,5.36q10.23,0,18.75-7.8c5.69-5.18,8.55-12.19,8.55-20.94a32.69,32.69,0,0,0-2.45-11.7Zm-78.58,191,48.5-114,48.94,114Z" />
            <path class="cls-1"
                d="M1480.55,1179.82q-22.2-14.61-47.52-14.62H1321.91a29.11,29.11,0,0,0-29.72,29.73v281.68q0,12.69,7.79,21.21t20,8.52q12.66,0,20.46-8.52t7.8-21.21v-92.1H1433q25.35,0,47.52-14.87t35.82-39.72q13.64-24.84,13.64-55.07,0-30.69-13.64-55.55T1480.55,1179.82Zm-14.86,121.1a61.85,61.85,0,0,1-14.63,20.23q-8.77,7.81-18,7.8h-84.8V1221.24H1433q9.24,0,18,7.56a61.94,61.94,0,0,1,20.48,46A60.54,60.54,0,0,1,1465.69,1300.92Z" />
            <path class="cls-1"
                d="M1773.72,1221.24c8.44,0,15.51-2.5,21.2-7.55s8.54-11.62,8.54-19.74q0-12.66-8.54-20.71t-21.2-8H1610.45a29.13,29.13,0,0,0-29.72,29.73v281.68a29.13,29.13,0,0,0,29.72,29.73h163.27q12.66,0,21.2-7.8t8.54-20q0-11.2-8.54-19.74a28.81,28.81,0,0,0-21.2-8.52H1641.64v-90.16h110.15q12.66,0,21.2-7.55t8.52-19.74q0-12.66-8.52-20.71t-21.2-8H1641.64v-82.86Z" />
            <path class="cls-1"
                d="M2088.26,1165.2H1871.87q-12.66,0-21.19,7.55t-8.53,20.23q0,12.69,8.53,20.47t21.19,7.79h76.52v255.37a28.36,28.36,0,0,0,8.77,21.21q8.77,8.52,22.42,8.52,14.14,0,23.15-8.52a28,28,0,0,0,9-21.21V1221.24h76.52c8.44,0,15.51-2.5,21.19-7.55s8.54-11.77,8.54-20.23-2.86-15.26-8.54-20.46S2096.7,1165.2,2088.26,1165.2Z" />
            <path class="cls-1"
                d="M2392.06,1367.21a70.9,70.9,0,0,0-21.93-28.76q-14.61-11.45-36.79-18.76a390.55,390.55,0,0,0-51.41-12.67,283.11,283.11,0,0,1-38.51-10q-16.08-5.6-24.61-15.11c-5.7-6.34-8.52-14.38-8.52-24.12a33.61,33.61,0,0,1,7.3-21.45q7.3-9.24,21.68-14.62t35.34-5.35a101.24,101.24,0,0,1,27.29,4.13,188.86,188.86,0,0,1,27.78,10.24q13.17,6.11,21,12.91a21.41,21.41,0,0,0,13.16,4.39q11.2,0,19.49-8.77t8.29-19.49q0-14.62-14.14-25.84-17.05-14.62-44.1-24.12t-58.73-9.5q-33.63,0-61.41,11.69t-44.09,34.11q-16.35,22.44-16.33,54.11,0,21,6.81,37.76a81,81,0,0,0,20.23,29.25q13.41,12.4,33.38,20.46t46.3,12q27.78,3.9,45.81,11t26.81,17.3q8.77,10.23,8.78,24.86,0,12.18-9.26,21.67t-24.37,15.11a94.38,94.38,0,0,1-33.15,5.62q-26.79,0-45.08-7.81t-36.79-22.89a25.75,25.75,0,0,0-16.58-5.85,26.63,26.63,0,0,0-20.22,8.52,28,28,0,0,0-8,19.74,30.31,30.31,0,0,0,3.41,13.64,38.07,38.07,0,0,0,9.76,12.18q24.84,21.46,52.13,30t61.41,8.54a155.43,155.43,0,0,0,61.65-12.18q28.53-12.18,46.06-35.1t17.54-54.57Q2399.37,1384.49,2392.06,1367.21Z" />
            <path class="cls-1"
                d="M1412.68,436.24a244.67,244.67,0,0,0-107.75-21.73,78,78,0,0,0-22-31.16c-29.4-25.19-77.68-52.48-120.28-76.55-29.51-16.68-57.38-32.43-71.15-43.25a16.16,16.16,0,0,0-21.22,1.09c-23.42,22.62-30.28,44.57-36.33,63.94-5.94,19-11.08,35.43-32.16,52.67-23.12,14.38-40.33,13.94-60.24,13.42-20.28-.51-43.27-1.12-72.24,13.74a16.16,16.16,0,0,0-7.88,19.73c5.79,16.52,11.7,48,18,81.31,9,47.78,19.13,101.94,33.33,137.9a77.94,77.94,0,0,0,51.78,46.49,244,244,0,0,0,97.75,6.42l-38.26,123.08a143.49,143.49,0,0,1-24.1-44.28,16.17,16.17,0,0,0-31.07,9c1,3.36,24.61,82.73,100.82,102.94,9.78,2.59,20.24,4.4,30.35,6.15,52.86,9.15,58.38,17.76,58.38,35.24,0,8.7-4.4,17-12.07,22.7-12.68,9.47-32.06,11-54.56,4.36a15.67,15.67,0,0,0-4.31-.6c-91.23-44.78-160.81-121.41-196.68-217A395.27,395.27,0,0,1,867.24,562a5.59,5.59,0,0,0-.13-1.87l-23.2-93.27a5.61,5.61,0,0,0-10.77-.39c-30.49,95.81-28,198.43,7.82,294,42.29,112.7,125.91,202.15,235.45,251.92a365.76,365.76,0,0,0,484.27-181.68C1628.64,681.13,1562.23,504.2,1412.68,436.24ZM972.89,662.63a45.48,45.48,0,0,1-30.16-27.16c-13.07-33.08-22.93-85.62-31.63-132-5.25-28-9.94-53-14.87-71.62,15.91-5.62,29.34-5.27,44.44-4.88,9.39.25,19.34.49,30.09-.83-13.44,12.67-24.34,24.77-31.47,34.56A9.7,9.7,0,1,0,955,472.13c23.09-31.76,85.72-85.66,143.22-104.26a9.7,9.7,0,0,0-6-18.46,243,243,0,0,0-37.53,16.07c4.45-9.41,7.34-18.58,10.06-27.26,4.5-14.41,8.51-27.24,19-40.48,16,10.68,38.19,23.2,63,37.21,41.31,23.34,88.14,49.81,115.15,72.95a46.17,46.17,0,0,1,16.05,36.22c-1.33,62.32-17.49,113.1-93.68,173.45C1109,666,1039.83,680.76,972.89,662.63Zm456.53,219.29c-10.49,31.27-25.16,47.12-43.61,47.12h-2.25c-.31,0-.61,0-.92,0-108.89,6.28-135.65-55-136.73-57.57a15.94,15.94,0,0,0-2.41-3.9,128.65,128.65,0,0,1,15.12-11.77s-17-17-40.95-4.46-18.64,37.3-18.64,37.3c4.47-4.84,10.72-6.61,16.75-6.89.15.52.24,1.05.44,1.57,1.29,3.27,31.13,75.33,144.52,78-8,3.8-16.15,7.34-24.53,10.49a307,307,0,0,1-175.46,12.4c1.88-1.14,3.71-2.35,5.47-3.66C1182,968.82,1191,951.31,1191,932.53c0-51.76-48.69-60.19-84.23-66.34-9.75-1.68-19-3.27-27.26-5.48a94.56,94.56,0,0,1-27.25-12.13L1099,698.14c24.59,11.51,62.31,26.8,88.42,30.21a9.89,9.89,0,0,0,11.09-10.18l-2.06-66,1.56-1.51,83.57,6.12a16,16,0,0,0,13.06-5.25l70.18-78.13,25.77,201.1-34,.33a14.54,14.54,0,0,0-14.33,13.72H1341c0,39.83,31.31,37.75,47,60.19a5.7,5.7,0,0,0,9.33-.07c10.85-15.9,30.86-33.06,44.18-26.34C1439.59,840.09,1436.08,862.06,1429.42,881.92Zm82.9-74.12a314.3,314.3,0,0,1-50.58,78.12c9.88-32,12.93-67.08,13.86-85.66A27.86,27.86,0,0,0,1447.74,771l-22.65.24-28.27-220.67a26.1,26.1,0,0,0-45.3-14.13l-74.78,83.25-43.15-3.16c46.58-44.46,69.67-90.69,75.29-149.92a190.84,190.84,0,0,1,81.82,17.1C1513.58,539.51,1568.13,684.91,1512.32,807.8Z" />
            <circle class="cls-1" cx="1226.2" cy="745.93" r="17.61"
                transform="translate(-192.12 526.02) rotate(-22.5)" />
            <path class="cls-1"
                d="M1364.8,745.93a17.61,17.61,0,1,0-17.61,17.61A17.6,17.6,0,0,0,1364.8,745.93Z" />
            <path class="cls-1"
                d="M1149.09,466.43a17.61,17.61,0,1,0-17.61-17.61A17.61,17.61,0,0,0,1149.09,466.43Z" />
            <path class="cls-1"
                d="M1018.57,532.1a17.61,17.61,0,1,0,17.6,17.61A17.6,17.6,0,0,0,1018.57,532.1Z" />
            <path class="cls-1"
                d="M1153.71,509.73a7.35,7.35,0,0,0-1.23,10.32,17.69,17.69,0,0,1-27.79,21.9,7.33,7.33,0,0,0-1.91-1.65L1119,514a8,8,0,0,0-11.39-6.16,70.3,70.3,0,0,0-23.6,18.59,8,8,0,0,0,3.32,12.52L1112,548.8a7.53,7.53,0,0,0,1.14,2.24,17.68,17.68,0,0,1-16,28.51,17.51,17.51,0,0,1-11.8-6.62,7.3,7.3,0,0,0-4.92-2.75,7.44,7.44,0,0,0-5.4,1.52,7.35,7.35,0,0,0-1.24,10.33,32.19,32.19,0,0,0,21.63,12.12,31.57,31.57,0,0,0,3.88.24,32.42,32.42,0,0,0,32.1-28.58,29.16,29.16,0,0,0,.07-3.37,30.6,30.6,0,0,0,3.29.72A32.39,32.39,0,0,0,1164,511,7.36,7.36,0,0,0,1153.71,509.73Z" />
            <path class="cls-1"
                d="M883.22,376.76a148.24,148.24,0,0,1,50.31-4.91,5.59,5.59,0,0,0,5.12-2.49,499.84,499.84,0,0,1,288-209q16.15-2.46,33.17-4.11c9.6,11.63-2.9,44.66-14.22,118.47,34.7-6.29,29.14,0,41.31-29.44,8.27-19,16.11-37.79,24.17-57.22,8.27-19,16.77-37.55,24.63-56.32,19.27-4.75,39-9.76,58.28-14.48,47.39-9.79,44.39-44.58-11.83-35.62-20.92,2.8-41.56,6-62,8.62-21.14-13.26-41.82-26.79-62.54-40.33s-41.81-26.8-62.51-40.33c-17.53-10.73-19.34-12-48.08-6.09,56.63,57.49,89.52,81.24,89.46,94.72,0,0-16.39,5.25-40.45,15.71A552.43,552.43,0,0,0,876.85,368.56,5.61,5.61,0,0,0,883.22,376.76Z" />
        </g>
    </g>
</svg>