<svg xmlns="http://www.w3.org/2000/svg" viewBox="0 0 2399.37 1772.02"><defs><style>.cls-1{fill:#a3cd39;}.cls-2{fill:#5a189a;}</style></defs><g id="Layer_2" data-name="Layer 2"><g id="Layer_3" data-name="Layer 3"><path class="cls-1" d="M158.3,1648.5a41.06,41.06,0,0,0-14.5-11.8,45,45,0,0,0-20-4.26H86a7.71,7.71,0,0,0-5.58,2.26,7.45,7.45,0,0,0-2.33,5.65v92.74a7.49,7.49,0,0,0,2.33,5.66A7.74,7.74,0,0,0,86,1741h37.84q15.19,0,25.43-7.28a45.52,45.52,0,0,0,15.52-19.63,69,69,0,0,0,5.26-27.38,72.61,72.61,0,0,0-2.94-20.85A52.58,52.58,0,0,0,158.3,1648.5Zm-8.22,57.84a31.31,31.31,0,0,1-10,14.34q-6.84,5.43-17.84,5.43H94.32v-78.78h27.92a28.86,28.86,0,0,1,14,3.18,27.52,27.52,0,0,1,9.62,8.68,38.67,38.67,0,0,1,5.58,12.57,60.7,60.7,0,0,1,1.79,15A58.32,58.32,0,0,1,150.08,1706.34Z"/><path class="cls-1" d="M251.19,1669a40.31,40.31,0,0,0-12.18-8.39,35.31,35.31,0,0,0-14.42-3,36.36,36.36,0,0,0-18.76,5.2,39.4,39.4,0,0,0-14.35,14.89q-5.5,9.69-5.5,23.34a43.57,43.57,0,0,0,5.19,21.49,37.52,37.52,0,0,0,14.66,14.72q9.45,5.35,22.33,5.35a39.34,39.34,0,0,0,15.43-3.1,37.67,37.67,0,0,0,11.55-7.13c2.28-1.87,3.41-3.93,3.41-6.21a6.39,6.39,0,0,0-1.86-4.57,6.2,6.2,0,0,0-4.65-2,9.07,9.07,0,0,0-4.65,1.4q-1.87,1.56-4.34,3.26a23.28,23.28,0,0,1-6.21,2.87,32.44,32.44,0,0,1-9.46,1.17,26.12,26.12,0,0,1-13.33-3.5,25.36,25.36,0,0,1-9.62-9.84,28.56,28.56,0,0,1-3.09-10.55H255a8,8,0,0,0,5.42-2,7,7,0,0,0,2.49-5.13,41.34,41.34,0,0,0-3.26-15.73A39.74,39.74,0,0,0,251.19,1669Zm-43.12,9.22a20.42,20.42,0,0,1,7.6-4.73,27.18,27.18,0,0,1,8.92-1.47,23.64,23.64,0,0,1,10.08,2.24,22.11,22.11,0,0,1,8.06,6.36,16.57,16.57,0,0,1,3.58,9.54v1.09H201.72a29.64,29.64,0,0,1,1.08-4.41A22.48,22.48,0,0,1,208.07,1678.19Z"/><path class="cls-1" d="M291.74,1632c-2.89,0-5.06.51-6.51,1.55s-2.17,2.84-2.17,5.43v2.48q0,3.87,2,5.51c1.34,1.07,3.52,1.62,6.52,1.62s5.35-.52,6.75-1.54,2.09-2.9,2.09-5.59V1639c0-2.49-.67-4.26-2-5.35S294.85,1632,291.74,1632Z"/><path class="cls-1" d="M291.9,1659.43a7.44,7.44,0,0,0-5.58,2.24,7.63,7.63,0,0,0-2.17,5.51v73.21a26.61,26.61,0,0,1-.86,6.9,11.51,11.51,0,0,1-3,5.26,13.52,13.52,0,0,1-5.66,3.19,13.27,13.27,0,0,0-4.73,2.64,5.68,5.68,0,0,0-1.94,4.49v1.39a7,7,0,0,0,2,5,7,7,0,0,0,5.27,2.09,23.31,23.31,0,0,0,11.94-3.26,24.26,24.26,0,0,0,9-9.3,29,29,0,0,0,3.42-14.43v-77.23a7.64,7.64,0,0,0-2.18-5.51A7.45,7.45,0,0,0,291.9,1659.43Z"/><path class="cls-1" d="M392.7,1658.19a7.34,7.34,0,0,0-5.5,2.32,7.76,7.76,0,0,0-2.25,5.58v3a30.88,30.88,0,0,0-3.88-3.75,35.58,35.58,0,0,0-9.84-5.58,35.63,35.63,0,0,0-31.18,3.25,38.29,38.29,0,0,0-13.41,15,51.18,51.18,0,0,0,0,44A38.61,38.61,0,0,0,340.13,1737a34.64,34.64,0,0,0,19.24,5.51,30.28,30.28,0,0,0,11.31-2.09,34.33,34.33,0,0,0,9.15-5.27,30.24,30.24,0,0,0,5.12-5.51v3.41a7.65,7.65,0,0,0,2.25,5.66,8,8,0,0,0,11.09,0,7.79,7.79,0,0,0,2.17-5.66v-67a7.82,7.82,0,0,0-2.17-5.66A7.46,7.46,0,0,0,392.7,1658.19Zm-18.76,66.37a22.59,22.59,0,0,1-12.87,3.73,22,22,0,0,1-12.64-3.73,25.78,25.78,0,0,1-8.69-10.15,34.13,34.13,0,0,1,0-28.77,25.8,25.8,0,0,1,8.69-10.09,22.1,22.1,0,0,1,12.64-3.71,22.73,22.73,0,0,1,12.87,3.71,24.92,24.92,0,0,1,8.68,10.09,34.82,34.82,0,0,1,0,28.77A24.9,24.9,0,0,1,373.94,1724.56Z"/><path class="cls-1" d="M482.81,1662.15q-6.06-4.59-17.06-4.59a29,29,0,0,0-10.24,1.8,32.35,32.35,0,0,0-8.69,4.8,37.6,37.6,0,0,0-6.58,6.51c-.48.62-.61,1.22-1,1.84v-5.18a7.71,7.71,0,0,0-2.24-5.66,7.54,7.54,0,0,0-5.51-2.24,7.44,7.44,0,0,0-5.58,2.24,7.82,7.82,0,0,0-2.17,5.66v65.76a7.79,7.79,0,0,0,2.17,5.66,7.41,7.41,0,0,0,5.58,2.25,7.51,7.51,0,0,0,5.51-2.25,7.68,7.68,0,0,0,2.24-5.66v-41.41a18.73,18.73,0,0,1,2.72-10,20.48,20.48,0,0,1,7.52-7.13,22.34,22.34,0,0,1,11.17-2.71c4.55,0,8.08.9,10.62,2.71a14.46,14.46,0,0,1,5.35,7.13,30.21,30.21,0,0,1,1.55,10v41.41a7.79,7.79,0,0,0,2.17,5.66,8,8,0,0,0,11.09,0,7.65,7.65,0,0,0,2.25-5.66v-41.56a57.23,57.23,0,0,0-2.4-17.13A23.89,23.89,0,0,0,482.81,1662.15Z"/><path class="cls-1" d="M583.61,1626.23a7.5,7.5,0,0,0-5.51,2.25,7.74,7.74,0,0,0-2.25,5.66v35.1a32,32,0,0,0-4-3.92,35.58,35.58,0,0,0-9.84-5.58,35,35,0,0,0-31,3.33,39.22,39.22,0,0,0-13.41,15,51,51,0,0,0,0,43.89,38.75,38.75,0,0,0,13.5,15,34.59,34.59,0,0,0,19.23,5.51,30.37,30.37,0,0,0,11.32-2.09,33.14,33.14,0,0,0,9.14-5.35,30.77,30.77,0,0,0,5.12-5.64v3.62a7.69,7.69,0,0,0,2.25,5.66,7.5,7.5,0,0,0,5.51,2.25,7.42,7.42,0,0,0,5.58-2.25,7.79,7.79,0,0,0,2.17-5.66v-98.95a7.76,7.76,0,0,0-2.17-5.73A7.6,7.6,0,0,0,583.61,1626.23Zm-18.69,98.33a22.51,22.51,0,0,1-12.95,3.73,22,22,0,0,1-12.64-3.73,25.78,25.78,0,0,1-8.68-10.07,34.21,34.21,0,0,1,0-28.85,25.7,25.7,0,0,1,8.68-10.09,22.12,22.12,0,0,1,12.64-3.71,22.73,22.73,0,0,1,12.87,3.71,24.92,24.92,0,0,1,8.68,10.09,35,35,0,0,1,0,28.85A25.2,25.2,0,0,1,564.92,1724.56Z"/><path class="cls-1" d="M672.62,1663.07a42.53,42.53,0,0,0-41.87,0,41,41,0,0,0-14.81,15,46.83,46.83,0,0,0,0,44,40.22,40.22,0,0,0,14.81,15,43.07,43.07,0,0,0,41.87,0,39.75,39.75,0,0,0,14.74-15,47.36,47.36,0,0,0,0-44A40.52,40.52,0,0,0,672.62,1663.07Zm1.24,51.72a25.46,25.46,0,0,1-9.22,9.92,24.29,24.29,0,0,1-12.95,3.58,24.67,24.67,0,0,1-13-3.58,25.31,25.31,0,0,1-9.31-9.92,33.35,33.35,0,0,1,0-29.38,26.13,26.13,0,0,1,9.31-9.94,24.36,24.36,0,0,1,13-3.63,24,24,0,0,1,12.95,3.63,26.29,26.29,0,0,1,9.22,9.94,33.26,33.26,0,0,1,0,29.38Z"/><path class="cls-1" d="M814.22,1662.61c-3.93-3.06-9.46-4.57-16.59-4.57a27.25,27.25,0,0,0-9.93,1.78,32.74,32.74,0,0,0-8.45,4.72,31.06,31.06,0,0,0-6.36,6.52c-.4.56-.51,1.08-.86,1.64v-38.56a7.73,7.73,0,0,0-2.24-5.66,7.51,7.51,0,0,0-5.51-2.25,7.41,7.41,0,0,0-5.58,2.25,7.83,7.83,0,0,0-2.17,5.66v98.95a7.79,7.79,0,0,0,2.17,5.66,7.41,7.41,0,0,0,5.58,2.25,7.51,7.51,0,0,0,5.51-2.25,7.68,7.68,0,0,0,2.24-5.66V1692a19.76,19.76,0,0,1,2.56-9.92,18.69,18.69,0,0,1,7.3-7.13,21.6,21.6,0,0,1,10.77-2.64c4.35,0,7.73.87,10.16,2.64a14,14,0,0,1,5.12,7.13,31.78,31.78,0,0,1,1.47,9.92v41.1a7.79,7.79,0,0,0,2.17,5.66,7.42,7.42,0,0,0,5.58,2.25,7.5,7.5,0,0,0,5.51-2.25,7.65,7.65,0,0,0,2.25-5.66V1692a57.4,57.4,0,0,0-2.4-17A24.26,24.26,0,0,0,814.22,1662.61Z"/><path class="cls-1" d="M908.82,1659.43a7.47,7.47,0,0,0-5.59,2.24,7.86,7.86,0,0,0-2.17,5.66v40.79q0,10.08-4.8,15.05t-14.12,5q-9.15,0-13.88-5t-4.73-15.05v-40.79a7.68,7.68,0,0,0-2.25-5.66,8,8,0,0,0-11.08,0,7.82,7.82,0,0,0-2.17,5.66v40.79q0,16.13,8.91,25.2t25.2,9.08q16.46,0,25.44-9.08t9-25.2v-40.79a7.69,7.69,0,0,0-2.26-5.66A7.49,7.49,0,0,0,908.82,1659.43Z"/><path class="cls-1" d="M1000.71,1669a40.44,40.44,0,0,0-12.18-8.39,35.31,35.31,0,0,0-14.42-3,36.39,36.39,0,0,0-18.77,5.2A39.38,39.38,0,0,0,941,1677.65q-5.5,9.69-5.51,23.34a43.67,43.67,0,0,0,5.19,21.49,37.59,37.59,0,0,0,14.66,14.72q9.46,5.35,22.33,5.35a39.39,39.39,0,0,0,15.44-3.1,37.92,37.92,0,0,0,11.55-7.13c2.27-1.87,3.41-3.93,3.41-6.21a6.39,6.39,0,0,0-1.86-4.57,6.2,6.2,0,0,0-4.65-2,9.11,9.11,0,0,0-4.66,1.4q-1.86,1.56-4.34,3.26a23.07,23.07,0,0,1-6.2,2.87,32.48,32.48,0,0,1-9.46,1.17,26.19,26.19,0,0,1-13.34-3.5A25.41,25.41,0,0,1,954,1715a28.37,28.37,0,0,1-3.09-10.55h53.64a8,8,0,0,0,5.43-2,7,7,0,0,0,2.48-5.13,41.15,41.15,0,0,0-3.25-15.73A39.74,39.74,0,0,0,1000.71,1669Zm-43.12,9.22a20.26,20.26,0,0,1,7.6-4.73,27.14,27.14,0,0,1,8.92-1.47,23.67,23.67,0,0,1,10.08,2.24,22.11,22.11,0,0,1,8.06,6.36,16.49,16.49,0,0,1,3.57,9.54v1.09H951.24a29.64,29.64,0,0,1,1.08-4.41A22.48,22.48,0,0,1,957.59,1678.19Z"/><path class="cls-1" d="M1040.64,1626.23a7.74,7.74,0,0,0-5.58,2.25,7.57,7.57,0,0,0-2.33,5.66v98.95a7.65,7.65,0,0,0,2.25,5.66,7.86,7.86,0,0,0,11,0,7.65,7.65,0,0,0,2.25-5.66v-98.95a8,8,0,0,0-2.09-5.66A7.18,7.18,0,0,0,1040.64,1626.23Z"/><path class="cls-1" d="M1082.05,1626.23a7.76,7.76,0,0,0-5.59,2.25,7.56,7.56,0,0,0-2.32,5.66v98.95a7.61,7.61,0,0,0,2.25,5.66,7.86,7.86,0,0,0,11,0,7.68,7.68,0,0,0,2.24-5.66v-98.95a8,8,0,0,0-2.09-5.66A7.15,7.15,0,0,0,1082.05,1626.23Z"/><path class="cls-1" d="M1181.14,1658.19a7.35,7.35,0,0,0-5.5,2.32,7.76,7.76,0,0,0-2.25,5.58v3a30.88,30.88,0,0,0-3.88-3.75,35.58,35.58,0,0,0-9.84-5.58,35.63,35.63,0,0,0-31.18,3.25,38.29,38.29,0,0,0-13.41,15,51.18,51.18,0,0,0,0,44,38.54,38.54,0,0,0,13.49,15.12,34.59,34.59,0,0,0,19.23,5.51,30.29,30.29,0,0,0,11.32-2.09,34.48,34.48,0,0,0,9.15-5.27,30.24,30.24,0,0,0,5.12-5.51v3.41a7.65,7.65,0,0,0,2.25,5.66,7.48,7.48,0,0,0,5.5,2.25,7.38,7.38,0,0,0,5.58-2.25,7.75,7.75,0,0,0,2.18-5.66v-67a7.78,7.78,0,0,0-2.18-5.66A7.4,7.4,0,0,0,1181.14,1658.19Zm-18.76,66.37a22.61,22.61,0,0,1-12.87,3.73,21.94,21.94,0,0,1-12.64-3.73,25.78,25.78,0,0,1-8.69-10.15,34.13,34.13,0,0,1,0-28.77,25.8,25.8,0,0,1,8.69-10.09,22.08,22.08,0,0,1,12.64-3.71,22.75,22.75,0,0,1,12.87,3.71,24.92,24.92,0,0,1,8.68,10.09,34.93,34.93,0,0,1,0,28.77A24.9,24.9,0,0,1,1162.38,1724.56Z"/><path class="cls-1" d="M1260.93,1700.91a34.67,34.67,0,0,0-8.52-4.41q-4.74-1.73-9.54-3a83.33,83.33,0,0,1-9.14-2.79,20.42,20.42,0,0,1-6.75-3.87,8,8,0,0,1-2.56-6.21q0-4.18,2.16-6.36a11.79,11.79,0,0,1,5.35-3,23.63,23.63,0,0,1,6.14-.85,25.32,25.32,0,0,1,10.53,2.09,19.84,19.84,0,0,1,7.61,5.81,6.82,6.82,0,0,0,4.34,1.72,6.22,6.22,0,0,0,4.49-1.4q2.81-2.17,2.56-5a9,9,0,0,0-1.78-4.81,27.11,27.11,0,0,0-8.06-6.5,39.34,39.34,0,0,0-9.62-3.65,41.74,41.74,0,0,0-9.46-1.17,34.62,34.62,0,0,0-14.34,3,27.57,27.57,0,0,0-10.7,8.21,19.84,19.84,0,0,0-4.11,12.58,20.76,20.76,0,0,0,2.56,10.69,21.13,21.13,0,0,0,6.59,7,37.68,37.68,0,0,0,9.07,4.43q5,1.71,10,3.1c3.1.83,6,1.74,8.68,2.72a19,19,0,0,1,6.52,3.8,8.14,8.14,0,0,1,2.47,6.2q0,4.34-2.32,6.59a12.45,12.45,0,0,1-5.58,3.1,31.7,31.7,0,0,1-6.36,1,27.81,27.81,0,0,1-13-2.79,34.28,34.28,0,0,1-9.69-7.61,7.55,7.55,0,0,0-4.59-2.39,7,7,0,0,0-4.57,1.17c-2.07,1.33-3.15,3-3.25,4.87a8.39,8.39,0,0,0,1.23,5,32.31,32.31,0,0,0,14.81,11.09,51.6,51.6,0,0,0,17.61,3.17,36.85,36.85,0,0,0,14.18-2.79,28.1,28.1,0,0,0,11.17-8.14,19.61,19.61,0,0,0,4.43-12.95,21.77,21.77,0,0,0-2.41-10.78A21.24,21.24,0,0,0,1260.93,1700.91Z"/><path class="cls-1" d="M1392.91,1663.46a35,35,0,0,0-19.31-5.42,30.67,30.67,0,0,0-10.17,1.7,33,33,0,0,0-8.68,4.49,31.25,31.25,0,0,0-6.27,6c-.2.25-.29.5-.47.75V1667a7.79,7.79,0,0,0-2.24-5.58,7.79,7.79,0,0,0-11.11,0,7.93,7.93,0,0,0-2.16,5.58v97.09a7.85,7.85,0,0,0,2.16,5.66,8,8,0,0,0,11.11,0,7.71,7.71,0,0,0,2.24-5.66V1730.2a32.52,32.52,0,0,0,5.58,5.45,34.42,34.42,0,0,0,9.31,4.89,33.3,33.3,0,0,0,11.16,1.86A34,34,0,0,0,1393,1737a38.82,38.82,0,0,0,13.34-15,47,47,0,0,0,5-21.94,46.21,46.21,0,0,0-5-21.8A38.9,38.9,0,0,0,1392.91,1663.46Zm.31,51a25.34,25.34,0,0,1-8.61,10.07,22.27,22.27,0,0,1-12.71,3.65,22.93,22.93,0,0,1-13-3.65,24.63,24.63,0,0,1-8.6-10.07,32.61,32.61,0,0,1-3.1-14.35,31.5,31.5,0,0,1,3.1-14.27,24.87,24.87,0,0,1,8.6-9.84,22.86,22.86,0,0,1,13-3.65,22.2,22.2,0,0,1,12.71,3.65,25.5,25.5,0,0,1,8.61,9.92,31.08,31.08,0,0,1,3.17,14.19A32.1,32.1,0,0,1,1393.22,1714.41Z"/><path class="cls-1" d="M1488.37,1663.07a42.51,42.51,0,0,0-41.86,0,41,41,0,0,0-14.82,15,46.83,46.83,0,0,0,0,44,40.18,40.18,0,0,0,14.82,15,43.05,43.05,0,0,0,41.86,0,39.68,39.68,0,0,0,14.74-15,47.36,47.36,0,0,0,0-44A40.45,40.45,0,0,0,1488.37,1663.07Zm1.24,51.72a25.41,25.41,0,0,1-9.23,9.92,24.26,24.26,0,0,1-12.94,3.58,24.73,24.73,0,0,1-13-3.58,25.26,25.26,0,0,1-9.29-9.92,33.26,33.26,0,0,1,0-29.38,26.08,26.08,0,0,1,9.29-9.94,24.42,24.42,0,0,1,13-3.63,24,24,0,0,1,12.94,3.63,26.24,26.24,0,0,1,9.23,9.94,33.26,33.26,0,0,1,0,29.38Z"/><path class="cls-1" d="M1568.7,1657.56a27.91,27.91,0,0,0-17.22,5.9,28.88,28.88,0,0,0-6.12,6.51,27.85,27.85,0,0,0-2.26,4.78v-7.42a7.71,7.71,0,0,0-2.24-5.66,8,8,0,0,0-11.1,0,7.85,7.85,0,0,0-2.16,5.66v65.76a7.82,7.82,0,0,0,2.16,5.66,8,8,0,0,0,11.1,0,7.68,7.68,0,0,0,2.24-5.66v-37.22a29.76,29.76,0,0,1,1.63-10.08,25.56,25.56,0,0,1,4.43-7.83,19.63,19.63,0,0,1,6.2-5,14.9,14.9,0,0,1,6.67-1.7,12.15,12.15,0,0,1,5.12,1,10.4,10.4,0,0,0,4.49,1,7,7,0,0,0,4.8-1.94c1.46-1.29,2.18-3.33,2.18-6.12a6.51,6.51,0,0,0-2.94-5.43A11.4,11.4,0,0,0,1568.7,1657.56Z"/><path class="cls-1" d="M1699.66,1669a40.15,40.15,0,0,0-12.17-8.39,35.27,35.27,0,0,0-14.42-3,36.42,36.42,0,0,0-18.77,5.2,39.45,39.45,0,0,0-14.34,14.89q-5.52,9.69-5.5,23.34a43.67,43.67,0,0,0,5.19,21.49,37.56,37.56,0,0,0,14.65,14.72q9.45,5.35,22.34,5.35a39.34,39.34,0,0,0,15.43-3.1,37.67,37.67,0,0,0,11.55-7.13c2.27-1.87,3.42-3.93,3.42-6.21a6.4,6.4,0,0,0-1.87-4.57,6.2,6.2,0,0,0-4.65-2,9.07,9.07,0,0,0-4.65,1.4q-1.86,1.56-4.35,3.26a23.07,23.07,0,0,1-6.2,2.87,32.48,32.48,0,0,1-9.46,1.17,26.19,26.19,0,0,1-13.34-3.5,25.43,25.43,0,0,1-9.62-9.84,28.54,28.54,0,0,1-3.07-10.55h53.64a8,8,0,0,0,5.42-2,7,7,0,0,0,2.49-5.13,41.34,41.34,0,0,0-3.27-15.73A39.09,39.09,0,0,0,1699.66,1669Zm-43.11,9.22a20.42,20.42,0,0,1,7.6-4.73,27.22,27.22,0,0,1,8.92-1.47,23.67,23.67,0,0,1,10.08,2.24,22,22,0,0,1,8.06,6.36,16.57,16.57,0,0,1,3.58,9.54v1.09h-44.58a29.66,29.66,0,0,1,1.07-4.41A22.48,22.48,0,0,1,1656.55,1678.19Z"/><path class="cls-1" d="M1739.61,1626.23a7.72,7.72,0,0,0-5.58,2.25,7.5,7.5,0,0,0-2.33,5.66v98.95a7.68,7.68,0,0,0,2.24,5.66,7.86,7.86,0,0,0,11,0,7.65,7.65,0,0,0,2.25-5.66v-98.95a8,8,0,0,0-2.08-5.66A7.19,7.19,0,0,0,1739.61,1626.23Z"/><path class="cls-1" d="M1926.78,1662.61c-3.93-3.06-9.46-4.57-16.59-4.57a28.37,28.37,0,0,0-12.26,2.71,34.87,34.87,0,0,0-9.84,6.82,31.49,31.49,0,0,0-6,7.89c-1.53-4.68-3.69-8.76-7-11.77-4.15-3.77-10-5.65-17.69-5.65a27,27,0,0,0-10.09,1.85,34.85,34.85,0,0,0-8.45,4.8,29.84,29.84,0,0,0-6.27,6.52c-.29.42-.37.81-.63,1.23v-5.11a7.71,7.71,0,0,0-2.24-5.66,8,8,0,0,0-11.1,0,7.85,7.85,0,0,0-2.16,5.66v65.76a7.82,7.82,0,0,0,2.16,5.66,8,8,0,0,0,11.1,0,7.68,7.68,0,0,0,2.24-5.66V1692a19.76,19.76,0,0,1,2.56-9.92,18.85,18.85,0,0,1,7.21-7.13,21.22,21.22,0,0,1,10.7-2.64c4.24,0,7.55.87,9.93,2.64a14.12,14.12,0,0,1,5,7.13,31.78,31.78,0,0,1,1.47,9.92v41.1a7.75,7.75,0,0,0,2.18,5.66,8.06,8.06,0,0,0,11.17,0,7.82,7.82,0,0,0,2.16-5.66v-40.95a19.4,19.4,0,0,1,2.64-9.92,19.78,19.78,0,0,1,7.37-7.21,21.25,21.25,0,0,1,10.77-2.71c4.25,0,7.57.9,10,2.71a14.44,14.44,0,0,1,5.12,7.21,32.21,32.21,0,0,1,1.48,9.92v40.95a7.63,7.63,0,0,0,2.23,5.66,7.53,7.53,0,0,0,5.51,2.25,7.41,7.41,0,0,0,5.58-2.25,7.75,7.75,0,0,0,2.18-5.66V1692a59,59,0,0,0-2.33-17.13A23.76,23.76,0,0,0,1926.78,1662.61Z"/><path class="cls-1" d="M2021.38,1659.43a7.44,7.44,0,0,0-5.58,2.24,7.85,7.85,0,0,0-2.16,5.66v40.79q0,10.08-4.82,15.05t-14.1,5q-9.17,0-13.88-5t-4.74-15.05v-40.79a7.71,7.71,0,0,0-2.24-5.66,8,8,0,0,0-11.1,0,7.82,7.82,0,0,0-2.17,5.66v40.79q0,16.13,8.91,25.2t25.22,9.08q16.41,0,25.42-9.08t9-25.2v-40.79a7.68,7.68,0,0,0-2.25-5.66A7.51,7.51,0,0,0,2021.38,1659.43Z"/><path class="cls-1" d="M2111.34,1662.15q-6-4.59-17.05-4.59a29,29,0,0,0-10.25,1.8,32.14,32.14,0,0,0-8.68,4.8,37.33,37.33,0,0,0-6.59,6.51,21,21,0,0,0-1,1.84v-5.18a7.71,7.71,0,0,0-2.24-5.66,8,8,0,0,0-11.1,0,7.82,7.82,0,0,0-2.17,5.66v65.76a7.79,7.79,0,0,0,2.17,5.66,8,8,0,0,0,11.1,0,7.68,7.68,0,0,0,2.24-5.66v-41.41a18.72,18.72,0,0,1,2.71-10,20.51,20.51,0,0,1,7.53-7.13,22.32,22.32,0,0,1,11.17-2.71c4.53,0,8.08.9,10.62,2.71a14.44,14.44,0,0,1,5.34,7.13,29.94,29.94,0,0,1,1.56,10v41.41a7.79,7.79,0,0,0,2.17,5.66,7.95,7.95,0,0,0,11.08,0,7.62,7.62,0,0,0,2.26-5.66v-41.56a56.91,56.91,0,0,0-2.41-17.13A23.89,23.89,0,0,0,2111.34,1662.15Z"/><path class="cls-1" d="M2212.16,1626.23a7.47,7.47,0,0,0-5.51,2.25,7.7,7.7,0,0,0-2.25,5.66v35.1a32.12,32.12,0,0,0-4-3.92,35.58,35.58,0,0,0-9.84-5.58,33.51,33.51,0,0,0-12.18-2.18,33.85,33.85,0,0,0-18.85,5.51,39.3,39.3,0,0,0-13.41,15,51,51,0,0,0,0,43.89,38.73,38.73,0,0,0,13.49,15,34.63,34.63,0,0,0,19.23,5.51,30.38,30.38,0,0,0,11.33-2.09,32.85,32.85,0,0,0,9.14-5.35,31.13,31.13,0,0,0,5.13-5.63v3.61a7.65,7.65,0,0,0,2.25,5.66,8,8,0,0,0,11.09,0,7.82,7.82,0,0,0,2.16-5.66v-98.95a7.79,7.79,0,0,0-2.16-5.73A7.61,7.61,0,0,0,2212.16,1626.23Zm-18.7,98.33a22.48,22.48,0,0,1-12.94,3.73,22,22,0,0,1-12.65-3.73,25.78,25.78,0,0,1-8.68-10.07,34.31,34.31,0,0,1,0-28.85,25.7,25.7,0,0,1,8.68-10.09,22.13,22.13,0,0,1,12.65-3.71,22.74,22.74,0,0,1,12.86,3.71,24.92,24.92,0,0,1,8.68,10.09,35.11,35.11,0,0,1,0,28.85A25.28,25.28,0,0,1,2193.46,1724.56Z"/><path class="cls-1" d="M2315.9,1678.11a41.63,41.63,0,0,0-56.6-15,41,41,0,0,0-14.82,15,46.83,46.83,0,0,0,0,44,40.25,40.25,0,0,0,14.82,15,43.05,43.05,0,0,0,41.86,0,39.68,39.68,0,0,0,14.74-15,47.36,47.36,0,0,0,0-44Zm-13.5,36.68a25.41,25.41,0,0,1-9.23,9.92,24.26,24.26,0,0,1-12.94,3.58,24.78,24.78,0,0,1-13-3.58,25.26,25.26,0,0,1-9.29-9.92,33.26,33.26,0,0,1,0-29.38,26.08,26.08,0,0,1,9.29-9.94,24.47,24.47,0,0,1,13-3.63,24,24,0,0,1,12.94,3.63,26.24,26.24,0,0,1,9.23,9.94,33.26,33.26,0,0,1,0,29.38Z"/><path class="cls-2" d="M295.82,1164.71q-14.62,0-23.88,13.16L162.63,1341.18,56.53,1177.87a28,28,0,0,0-11.45-9.5,33.1,33.1,0,0,0-14.38-3.66A30,30,0,0,0,9,1173.49a28.23,28.23,0,0,0-9,21v282.16q0,12.69,7.8,21.21t20,8.52q12.68,0,20.48-8.52T56,1476.61V1275.89L136.45,1403a41.11,41.11,0,0,0,11,9.26,21.76,21.76,0,0,0,12.91,3.41,22.64,22.64,0,0,0,13.4-3.41,41,41,0,0,0,11-9.26l80.41-122.58v196.16a28.76,28.76,0,0,0,8.53,21.21q8.53,8.52,22.18,8.52t21.92-8.52q8.29-8.52,8.3-21.21V1194.45q0-13.17-9.26-21.45A30.6,30.6,0,0,0,295.82,1164.71Z"/><path class="cls-2" d="M547.62,1182.75a28.94,28.94,0,0,0-11-14.38,28.61,28.61,0,0,0-16.33-5.13,25.59,25.59,0,0,0-17.3,4.4,31.78,31.78,0,0,0-11.95,15.11L369.74,1474.19a32,32,0,0,0-1.47,9.26c0,7.13,2.12,13.15,6.34,18s10.72,7.32,19.5,7.32a25.68,25.68,0,0,0,15.35-5.11,30,30,0,0,0,10.47-14.37l25.29-59.48H590.54l25.31,59a34.73,34.73,0,0,0,11,14.63,25.52,25.52,0,0,0,15.84,5.36q10.23,0,18.76-7.8c5.69-5.18,8.53-12.19,8.53-20.94a32.85,32.85,0,0,0-2.43-11.7Zm-78.57,191,48.49-114,49,114Z"/><path class="cls-2" d="M936.38,1219.3q-13.65-24.87-35.82-39.48T853,1165.2H741.93a29.13,29.13,0,0,0-29.73,29.73v281.68q0,12.69,7.8,21.21t20,8.52q12.67,0,20.48-8.52t7.8-21.21v-92.1H853q25.34,0,47.52-14.87t35.82-39.72Q950,1305.08,950,1274.85,950,1244.16,936.38,1219.3Zm-50.69,81.62a61.54,61.54,0,0,1-14.62,20.23q-8.77,7.81-18,7.8H768.25V1221.24H853q9.26,0,18,7.56a62,62,0,0,1,20.47,46A60.4,60.4,0,0,1,885.69,1300.92Z"/><path class="cls-2" d="M1127.61,1182.75a28.9,28.9,0,0,0-11-14.38,28.59,28.59,0,0,0-16.33-5.13,25.62,25.62,0,0,0-17.3,4.4,31.82,31.82,0,0,0-11.94,15.11L949.72,1474.19a32.32,32.32,0,0,0-1.46,9.26c0,7.13,2.12,13.15,6.34,18s10.72,7.32,19.49,7.32a25.69,25.69,0,0,0,15.36-5.11,30.11,30.11,0,0,0,10.47-14.37l25.29-59.48h145.31l25.31,59a34.89,34.89,0,0,0,11,14.63,25.57,25.57,0,0,0,15.85,5.36q10.23,0,18.75-7.8c5.69-5.18,8.55-12.19,8.55-20.94a32.69,32.69,0,0,0-2.45-11.7Zm-78.58,191,48.5-114,48.94,114Z"/><path class="cls-2" d="M1480.55,1179.82q-22.2-14.61-47.52-14.62H1321.91a29.11,29.11,0,0,0-29.72,29.73v281.68q0,12.69,7.79,21.21t20,8.52q12.66,0,20.46-8.52t7.8-21.21v-92.1H1433q25.35,0,47.52-14.87t35.82-39.72q13.64-24.84,13.64-55.07,0-30.69-13.64-55.55T1480.55,1179.82Zm-14.86,121.1a61.85,61.85,0,0,1-14.63,20.23q-8.77,7.81-18,7.8h-84.8V1221.24H1433q9.24,0,18,7.56a61.94,61.94,0,0,1,20.48,46A60.54,60.54,0,0,1,1465.69,1300.92Z"/><path class="cls-2" d="M1773.72,1221.24c8.44,0,15.51-2.5,21.2-7.55s8.54-11.62,8.54-19.74q0-12.66-8.54-20.71t-21.2-8H1610.45a29.13,29.13,0,0,0-29.72,29.73v281.68a29.13,29.13,0,0,0,29.72,29.73h163.27q12.66,0,21.2-7.8t8.54-20q0-11.2-8.54-19.74a28.81,28.81,0,0,0-21.2-8.52H1641.64v-90.16h110.15q12.66,0,21.2-7.55t8.52-19.74q0-12.66-8.52-20.71t-21.2-8H1641.64v-82.86Z"/><path class="cls-2" d="M2088.26,1165.2H1871.87q-12.66,0-21.19,7.55t-8.53,20.23q0,12.69,8.53,20.47t21.19,7.79h76.52v255.37a28.36,28.36,0,0,0,8.77,21.21q8.77,8.52,22.42,8.52,14.14,0,23.15-8.52a28,28,0,0,0,9-21.21V1221.24h76.52c8.44,0,15.51-2.5,21.19-7.55s8.54-11.77,8.54-20.23-2.86-15.26-8.54-20.46S2096.7,1165.2,2088.26,1165.2Z"/><path class="cls-2" d="M2392.06,1367.21a70.9,70.9,0,0,0-21.93-28.76q-14.61-11.45-36.79-18.76a390.55,390.55,0,0,0-51.41-12.67,283.11,283.11,0,0,1-38.51-10q-16.08-5.6-24.61-15.11c-5.7-6.34-8.52-14.38-8.52-24.12a33.61,33.61,0,0,1,7.3-21.45q7.3-9.24,21.68-14.62t35.34-5.35a101.24,101.24,0,0,1,27.29,4.13,188.86,188.86,0,0,1,27.78,10.24q13.17,6.11,21,12.91a21.41,21.41,0,0,0,13.16,4.39q11.2,0,19.49-8.77t8.29-19.49q0-14.62-14.14-25.84-17.05-14.62-44.1-24.12t-58.73-9.5q-33.63,0-61.41,11.69t-44.09,34.11q-16.35,22.44-16.33,54.11,0,21,6.81,37.76a81,81,0,0,0,20.23,29.25q13.41,12.4,33.38,20.46t46.3,12q27.78,3.9,45.81,11t26.81,17.3q8.77,10.23,8.78,24.86,0,12.18-9.26,21.67t-24.37,15.11a94.38,94.38,0,0,1-33.15,5.62q-26.79,0-45.08-7.81t-36.79-22.89a25.75,25.75,0,0,0-16.58-5.85,26.63,26.63,0,0,0-20.22,8.52,28,28,0,0,0-8,19.74,30.31,30.31,0,0,0,3.41,13.64,38.07,38.07,0,0,0,9.76,12.18q24.84,21.46,52.13,30t61.41,8.54a155.43,155.43,0,0,0,61.65-12.18q28.53-12.18,46.06-35.1t17.54-54.57Q2399.37,1384.5,2392.06,1367.21Z"/><path class="cls-2" d="M1412.68,436.24a244.67,244.67,0,0,0-107.75-21.73,78,78,0,0,0-22-31.16c-29.4-25.19-77.68-52.48-120.28-76.55-29.51-16.68-57.38-32.43-71.15-43.25a16.16,16.16,0,0,0-21.22,1.09c-23.42,22.62-30.28,44.57-36.33,63.94-5.94,19-11.08,35.43-32.16,52.67-23.12,14.38-40.33,13.94-60.24,13.42-20.28-.51-43.27-1.12-72.24,13.74a16.16,16.16,0,0,0-7.88,19.73c5.79,16.52,11.7,48,18,81.31,9,47.78,19.13,101.94,33.33,137.9a77.94,77.94,0,0,0,51.78,46.49,244,244,0,0,0,97.75,6.42l-38.26,123.08a143.49,143.49,0,0,1-24.1-44.28,16.17,16.17,0,0,0-31.07,9c1,3.36,24.61,82.73,100.82,102.94,9.78,2.59,20.24,4.4,30.35,6.15,52.86,9.15,58.38,17.76,58.38,35.24,0,8.7-4.4,17-12.07,22.7-12.68,9.47-32.06,11-54.56,4.36a15.67,15.67,0,0,0-4.31-.6c-91.23-44.78-160.81-121.41-196.68-217A395.27,395.27,0,0,1,867.24,562a5.59,5.59,0,0,0-.13-1.87l-23.2-93.27a5.61,5.61,0,0,0-10.77-.39c-30.49,95.81-28,198.43,7.82,294,42.29,112.7,125.91,202.15,235.45,251.92a365.76,365.76,0,0,0,484.27-181.68C1628.64,681.13,1562.23,504.2,1412.68,436.24ZM972.89,662.63a45.48,45.48,0,0,1-30.16-27.16c-13.07-33.08-22.93-85.62-31.63-132-5.25-28-9.94-53-14.87-71.62,15.91-5.62,29.34-5.27,44.44-4.88,9.39.25,19.34.49,30.09-.83-13.44,12.67-24.34,24.77-31.47,34.56A9.7,9.7,0,1,0,955,472.13c23.09-31.76,85.72-85.66,143.22-104.26a9.7,9.7,0,0,0-6-18.46,243,243,0,0,0-37.53,16.07c4.45-9.41,7.34-18.58,10.06-27.26,4.5-14.41,8.51-27.24,19-40.48,16,10.68,38.19,23.2,63,37.21,41.31,23.34,88.14,49.81,115.15,72.95a46.17,46.17,0,0,1,16.05,36.22c-1.33,62.32-17.49,113.1-93.68,173.45C1109,666,1039.83,680.76,972.89,662.63Zm456.53,219.29c-10.49,31.27-25.16,47.12-43.61,47.12h-2.25c-.31,0-.61,0-.92,0-108.89,6.28-135.65-55-136.73-57.57a15.94,15.94,0,0,0-2.41-3.9,128.65,128.65,0,0,1,15.12-11.77s-17-17-40.95-4.46-18.64,37.3-18.64,37.3c4.47-4.84,10.72-6.61,16.75-6.89.15.52.24,1.05.44,1.57,1.29,3.27,31.13,75.33,144.52,78-8,3.8-16.15,7.34-24.53,10.49a307,307,0,0,1-175.46,12.4c1.88-1.14,3.71-2.35,5.47-3.66C1182,968.82,1191,951.31,1191,932.53c0-51.76-48.69-60.19-84.23-66.33-9.75-1.69-19-3.28-27.26-5.49a94.56,94.56,0,0,1-27.25-12.13L1099,698.14c24.59,11.51,62.31,26.8,88.42,30.21a9.89,9.89,0,0,0,11.09-10.18l-2.06-66,1.56-1.51,83.57,6.12a16,16,0,0,0,13.06-5.25l70.18-78.13,25.77,201.1-34,.33a14.54,14.54,0,0,0-14.33,13.72H1341c0,39.83,31.31,37.75,47,60.19a5.7,5.7,0,0,0,9.33-.07c10.85-15.9,30.86-33.06,44.18-26.34C1439.59,840.09,1436.08,862.06,1429.42,881.92Zm82.9-74.12a314.3,314.3,0,0,1-50.58,78.12c9.88-32,12.93-67.08,13.86-85.66A27.86,27.86,0,0,0,1447.74,771l-22.65.24-28.27-220.67a26.1,26.1,0,0,0-45.3-14.13l-74.78,83.25-43.15-3.16c46.58-44.46,69.67-90.69,75.29-149.92a190.84,190.84,0,0,1,81.82,17.1C1513.58,539.51,1568.13,684.91,1512.32,807.8Z"/><path class="cls-2" d="M1226.2,728.32a17.61,17.61,0,1,0,17.61,17.61A17.6,17.6,0,0,0,1226.2,728.32Z"/><path class="cls-2" d="M1364.8,745.93a17.61,17.61,0,1,0-17.61,17.61A17.6,17.6,0,0,0,1364.8,745.93Z"/><circle class="cls-2" cx="1149.09" cy="448.82" r="17.61" transform="translate(-84.29 473.9) rotate(-22.5)"/><path class="cls-2" d="M1018.57,532.1a17.61,17.61,0,1,0,17.6,17.61A17.6,17.6,0,0,0,1018.57,532.1Z"/><path class="cls-2" d="M1153.71,509.73a7.35,7.35,0,0,0-1.23,10.32,17.69,17.69,0,0,1-27.79,21.9,7.33,7.33,0,0,0-1.91-1.65L1119,514a8,8,0,0,0-11.39-6.16,70.3,70.3,0,0,0-23.6,18.59,8,8,0,0,0,3.32,12.52L1112,548.8a7.53,7.53,0,0,0,1.14,2.24,17.68,17.68,0,0,1-16,28.51,17.51,17.51,0,0,1-11.8-6.62,7.3,7.3,0,0,0-4.92-2.75,7.44,7.44,0,0,0-5.4,1.52,7.35,7.35,0,0,0-1.24,10.33,32.19,32.19,0,0,0,21.63,12.12,31.57,31.57,0,0,0,3.88.24,32.42,32.42,0,0,0,32.1-28.58,29.16,29.16,0,0,0,.07-3.37,30.6,30.6,0,0,0,3.29.72A32.39,32.39,0,0,0,1164,511,7.36,7.36,0,0,0,1153.71,509.73Z"/><path class="cls-2" d="M883.22,376.76a148.24,148.24,0,0,1,50.31-4.91,5.59,5.59,0,0,0,5.12-2.49,499.84,499.84,0,0,1,288-209q16.15-2.46,33.17-4.11c9.6,11.63-2.9,44.66-14.22,118.47,34.7-6.29,29.14,0,41.31-29.44,8.27-19,16.11-37.79,24.17-57.22,8.27-19,16.77-37.55,24.63-56.32,19.27-4.75,39-9.76,58.28-14.48,47.39-9.79,44.39-44.58-11.83-35.62-20.92,2.8-41.56,6-62,8.62-21.14-13.26-41.82-26.79-62.54-40.33s-41.81-26.8-62.51-40.33c-17.53-10.73-19.34-12-48.08-6.09,56.63,57.49,89.52,81.24,89.46,94.72,0,0-16.39,5.25-40.45,15.71A552.43,552.43,0,0,0,876.85,368.56,5.61,5.61,0,0,0,883.22,376.76Z"/></g></g></svg>