<svg xmlns="http://www.w3.org/2000/svg" viewBox="0 0 775.34 1045.33">
    <defs>
        <style>.cls-1{fill:#5a189a;}</style>
    </defs>
    <g id="Layer_2" data-name="Layer 2">
        <g id="Layer_3" data-name="Layer 3">
            <path class="cls-1"
                d="M600.67,436.24a244.7,244.7,0,0,0-107.75-21.73,78,78,0,0,0-22.05-31.16c-29.4-25.19-77.68-52.48-120.28-76.55-29.51-16.68-57.39-32.43-71.16-43.25a16.16,16.16,0,0,0-21.22,1.09c-23.41,22.62-30.27,44.57-36.32,63.94-5.94,19-11.08,35.43-32.16,52.67-23.12,14.38-40.33,13.94-60.24,13.42-20.28-.51-43.28-1.12-72.25,13.74a16.17,16.17,0,0,0-7.88,19.73c5.8,16.52,11.7,48,18,81.31,9,47.78,19.12,101.94,33.33,137.9a77.92,77.92,0,0,0,51.78,46.49,244,244,0,0,0,97.74,6.42L211.92,823.34a143.49,143.49,0,0,1-24.1-44.28,16.17,16.17,0,1,0-31.07,9c1,3.36,24.61,82.73,100.82,102.94,9.78,2.59,20.23,4.4,30.34,6.15,52.86,9.15,58.38,17.76,58.38,35.24,0,8.7-4.39,17-12.07,22.7-12.68,9.47-32.05,11-54.55,4.36a15.67,15.67,0,0,0-4.31-.6C184.13,914,114.54,837.39,78.68,741.82A395.14,395.14,0,0,1,55.22,562a5.12,5.12,0,0,0-.13-1.87l-23.2-93.27a5.61,5.61,0,0,0-10.77-.39c-30.49,95.81-28,198.43,7.83,294,42.28,112.7,125.9,202.15,235.44,251.92A365.78,365.78,0,0,0,748.67,830.71C816.62,681.13,750.21,504.2,600.67,436.24ZM160.88,662.63a45.43,45.43,0,0,1-30.16-27.16c-13.07-33.08-22.93-85.62-31.63-132-5.25-28-10-53-14.87-71.62,15.9-5.62,29.34-5.27,44.43-4.88,9.4.25,19.34.49,30.09-.83-13.43,12.67-24.34,24.77-31.46,34.56A9.7,9.7,0,1,0,143,472.13c23.09-31.76,85.71-85.66,143.22-104.26a9.7,9.7,0,0,0-6-18.46,243.5,243.5,0,0,0-37.54,16.07c4.46-9.41,7.35-18.58,10.06-27.26,4.51-14.41,8.52-27.24,19-40.48,16,10.68,38.19,23.2,63,37.21,41.31,23.34,88.13,49.81,115.15,72.95a46.17,46.17,0,0,1,16.05,36.22c-1.34,62.32-17.5,113.1-93.69,173.45C297,666,227.82,680.76,160.88,662.63ZM617.4,881.92C606.92,913.19,592.25,929,573.8,929h-2.25c-.31,0-.62,0-.92,0-108.89,6.28-135.65-55-136.74-57.57a15.61,15.61,0,0,0-2.4-3.9,129,129,0,0,1,15.11-11.77s-17-17-40.94-4.46S387,888.67,387,888.67c4.47-4.84,10.73-6.61,16.76-6.89.15.52.24,1.05.44,1.57,1.29,3.27,31.13,75.33,144.52,78-8,3.8-16.15,7.34-24.54,10.49a307,307,0,0,1-175.45,12.4c1.87-1.14,3.7-2.35,5.46-3.66C370,968.82,379,951.31,379,932.53c0-51.76-48.68-60.19-84.23-66.33-9.74-1.69-18.94-3.28-27.25-5.49a94.56,94.56,0,0,1-27.25-12.13L287,698.14c24.6,11.51,62.31,26.8,88.42,30.21a9.9,9.9,0,0,0,11.1-10.18l-2.07-66,1.57-1.51,83.57,6.12a16,16,0,0,0,13.05-5.25l70.19-78.13,25.76,201.1-34,.33a14.53,14.53,0,0,0-14.32,13.72H529c0,39.83,31.3,37.75,47,60.19a5.71,5.71,0,0,0,9.34-.07c10.84-15.9,30.86-33.06,44.17-26.34C627.58,840.09,624.06,862.06,617.4,881.92Zm82.91-74.12a314.05,314.05,0,0,1-50.59,78.12c9.89-32,12.94-67.08,13.87-85.66A27.86,27.86,0,0,0,635.73,771l-22.65.24L584.81,550.57a26.1,26.1,0,0,0-45.3-14.13l-74.79,83.25-43.14-3.16c46.58-44.46,69.67-90.69,75.29-149.92a190.87,190.87,0,0,1,81.82,17.1C701.57,539.51,756.11,684.91,700.31,807.8Z" />
            <path class="cls-1"
                d="M414.18,728.32a17.61,17.61,0,1,0,17.61,17.61A17.6,17.6,0,0,0,414.18,728.32Z" />
            <path class="cls-1"
                d="M552.79,745.93a17.61,17.61,0,1,0-17.61,17.61A17.61,17.61,0,0,0,552.79,745.93Z" />
            <circle class="cls-1" cx="337.07" cy="448.82" r="17.61"
                transform="translate(-107.57 106.26) rotate(-15.48)" />
            <path class="cls-1"
                d="M206.55,532.1a17.61,17.61,0,1,0,17.61,17.61A17.61,17.61,0,0,0,206.55,532.1Z" />
            <path class="cls-1"
                d="M341.7,509.73a7.35,7.35,0,0,0-1.23,10.32A17.69,17.69,0,0,1,312.68,542a7.54,7.54,0,0,0-1.92-1.65L307,514a8,8,0,0,0-11.39-6.16A70.21,70.21,0,0,0,272,526.42a8,8,0,0,0,3.31,12.52L300,548.8a7.53,7.53,0,0,0,1.14,2.24,17.72,17.72,0,0,1-2.95,24.85,17.71,17.71,0,0,1-24.85-3,7.28,7.28,0,0,0-4.91-2.75,7.44,7.44,0,0,0-5.4,1.52A7.35,7.35,0,0,0,261.77,582a32.39,32.39,0,0,0,57.61-16.22c.13-1.13.05-2.24.07-3.37a30.6,30.6,0,0,0,3.29.72A32.39,32.39,0,0,0,352,511,7.36,7.36,0,0,0,341.7,509.73Z" />
            <path class="cls-1"
                d="M71.21,376.76a148.21,148.21,0,0,1,50.3-4.91,5.58,5.58,0,0,0,5.12-2.49,499.83,499.83,0,0,1,288-209q16.15-2.46,33.16-4.11c9.61,11.63-2.89,44.66-14.22,118.47,34.71-6.29,29.15,0,41.32-29.44,8.27-19,16.11-37.79,24.17-57.22,8.27-19,16.77-37.55,24.62-56.32C543,127,562.74,122,582,117.25c47.4-9.79,44.4-44.58-11.82-35.62-20.92,2.8-41.57,6-62,8.62C487,77,466.35,63.46,445.64,49.92S403.83,23.12,383.12,9.6c-17.52-10.74-19.33-12-48.07-6.1C391.67,61,424.57,84.74,424.51,98.22c0,0-16.39,5.25-40.45,15.71A552.43,552.43,0,0,0,64.84,368.56,5.61,5.61,0,0,0,71.21,376.76Z" />
        </g>
    </g>
</svg>