<?xml version="1.0" encoding="utf-8"?>
<!-- Generator: Adobe Illustrator 27.5.0, SVG Export Plug-In . SVG Version: 6.00 Build 0)  -->
<svg version="1.1" xmlns="http://www.w3.org/2000/svg" xmlns:xlink="http://www.w3.org/1999/xlink" x="0px" y="0px"
	 viewBox="0 0 500 500" style="enable-background:new 0 0 500 500;" xml:space="preserve">
<g id="BACKGROUND">
	<rect y="404.055" style="fill:#842F80;" width="500" height="95.945"/>
	<path style="opacity:0.38;fill:#5B1050;" d="M278.253,453.061c-11.769,0.941-23.902,2.286-34.184,8.089
		c-2.292,1.294-4.662,3.09-5.07,5.691c-0.767,4.89,5.389,7.625,10.251,8.549c46.526,8.845,94.349,10.835,141.449,5.886
		c4.079-0.429,8.286-0.898,12.215,0.28c3.882,1.164,7.149,3.842,10.969,5.199c7.536,2.677,15.8-0.135,23.293-2.929
		c10.092-3.763,20.185-7.525,30.277-11.288c5.643-2.104,12.262-5.476,12.509-11.494c0.265-6.45-6.973-10.316-13.156-12.17
		c-33.241-9.968-61.401-3.936-94.421,1.384C342.039,455.149,309.105,450.594,278.253,453.061z"/>
</g>
<g id="OBJECTS">
	<g>
		<path style="fill:#FF45D4;" d="M58.36,269.283c0,0-25-11.338-19-19.283s14,5.31,14,5.31s-4-17.606,5-14.931
			c9,2.676,2.835,32.806,2.835,32.806"/>
		<path style="fill:#FF45D4;" d="M171.36,124.606c0,0-5-23.064,2-23.308s4,10.602,4,10.602s7-11.895,12-3.87
			S171.36,124.606,171.36,124.606z"/>
	</g>
	<g>
		<g>
			<g>
				<path style="fill:#2D9FA5;" d="M287.992,154.865c10.246-27.109,41.462-26.968,77.967-25.587
					c36.505,1.382,31.775,36.543,32.354,72.155c0.579,35.612-0.881,49.957-29.099,56.905
					C340.997,265.286,287.992,154.865,287.992,154.865z"/>
				<path style="fill:#4FBDCA;" d="M302.018,258.165c15.063,0.889,37.093,1.975,55.442,2.02
					c11.141,0.027,20.132-9.082,19.952-20.221c-0.314-19.376-0.973-49.852-2.278-76.356c-0.401-8.148-5.725-15.215-13.443-17.858
					c-12.1-4.144-33.095-7.688-64.343-0.971c-9.217,1.981-15.833,10.073-15.818,19.5c0.025,16.388,0.331,44.123,1.788,74.941
					C283.798,249.388,291.856,257.565,302.018,258.165z"/>
			</g>
			<g>
				<path style="fill:#5F499B;" d="M378.648,281.504l-93.367-5.87c-2.52-0.158-4.757-1.824-5.681-4.323
					c-1.553-4.2-3.061-11.278-0.299-19.539c0.924-2.763,3.445-4.56,6.195-4.556c16.975,0.021,79.477,0.311,94.22,3.402
					L378.648,281.504z"/>
				<path style="fill:#534087;" d="M387.565,266.35c-0.294,8.529-4.286,15.313-8.916,15.154c-4.63-0.16-8.144-7.204-7.849-15.733
					c0.295-8.529,4.286-15.314,8.916-15.154C384.345,250.777,387.859,257.821,387.565,266.35z"/>
				<g>
					<path style="fill:#8573C6;" d="M386.872,257.665c-0.521-0.905-1.111-1.774-1.809-2.544c-0.693-0.769-1.513-1.448-2.467-1.819
						c-0.942-0.395-2.032-0.347-2.904,0.146c-0.879,0.486-1.537,1.306-2.047,2.18c-1.01,1.78-1.517,3.822-1.831,5.858
						c-0.316,2.045-0.411,4.124-0.395,6.199c0.02,2.076,0.148,4.147,0.514,6.169c0.193,1.005,0.432,2.006,0.812,2.941
						c0.373,0.93,0.861,1.828,1.551,2.472c0.352,0.307,0.747,0.54,1.168,0.649c0.424,0.099,0.866,0.042,1.283-0.115
						c0.847-0.326,1.539-1.081,2.076-1.901c1.069-1.679,1.637-3.693,1.918-5.709c0.31-2.018,0.291-4.102,0.22-6.168
						c-0.092-2.053-0.286-4.147-0.997-6.016c-0.342-0.912-0.88-1.829-1.664-2.131c-0.378-0.163-0.808-0.143-1.204,0.053
						c-0.406,0.163-0.764,0.487-1.066,0.847c-0.613,0.699-0.87,1.722-1.136,2.7c-0.248,0.993-0.423,2.013-0.555,3.037
						c-0.254,2.049-0.34,4.133-0.139,6.181c0.118,1.014,0.29,2.045,0.711,2.943c0.209,0.443,0.49,0.857,0.873,1.095
						c0.373,0.241,0.871,0.274,1.288,0.121c0.418-0.158,0.714-0.565,0.907-1.014c0.194-0.454,0.302-0.957,0.371-1.464
						c0.126-1.02,0.112-2.064,0.044-3.101c-0.147-2.077-0.487-4.145-0.943-6.183c0.53,2.021,0.946,4.077,1.171,6.164
						c0.106,1.044,0.161,2.098,0.069,3.159c-0.053,0.529-0.144,1.062-0.342,1.578c-0.195,0.503-0.531,1.037-1.099,1.282
						c-0.553,0.23-1.203,0.19-1.72-0.12c-0.515-0.31-0.845-0.8-1.09-1.287c-0.487-0.992-0.678-2.056-0.824-3.105
						c-0.25-2.11-0.205-4.23,0.011-6.331c0.113-1.051,0.27-2.098,0.508-3.138c0.269-1.018,0.512-2.114,1.272-3.027
						c0.362-0.437,0.796-0.844,1.36-1.083c0.266-0.147,0.584-0.188,0.894-0.24c0.313,0.022,0.649,0.012,0.932,0.159
						c1.205,0.493,1.763,1.608,2.162,2.592c0.788,2.047,0.985,4.183,1.098,6.288c0.085,2.104,0.125,4.223-0.188,6.344
						c-0.311,2.103-0.905,4.215-2.097,6.065c-0.607,0.902-1.383,1.785-2.508,2.222c-0.554,0.209-1.191,0.286-1.79,0.139
						c-0.595-0.154-1.112-0.475-1.543-0.859c-0.838-0.796-1.351-1.795-1.748-2.795c-0.4-1.007-0.641-2.052-0.835-3.097
						c-0.375-2.094-0.463-4.215-0.436-6.316c0.026-2.103,0.166-4.211,0.53-6.292c0.367-2.07,0.914-4.156,2.021-5.997
						c0.569-0.897,1.299-1.75,2.278-2.248c0.973-0.508,2.177-0.507,3.147-0.055c0.988,0.427,1.794,1.152,2.467,1.954
						C385.825,255.85,386.384,256.741,386.872,257.665z"/>
				</g>
			</g>
		</g>
		<g>
			<g>
				<g>
					<path style="fill:#FFF0C7;" d="M289.557,158.193c-5.594,0.789-11.208,1.067-16.334,0.582c-2.851-0.272-5.559-0.779-8.025-1.568
						c-4.591-1.478-8.368-3.929-10.753-7.642c-5.749-8.924-4.991-18.344-4.314-22.318c0.216-1.244,0.424-1.96,0.424-1.96
						c0.723,0.256,1.457,0.474,2.193,0.644c7.286,1.802,15.113,0.175,20.891-1.773c5.173-1.728,8.689-3.706,8.689-3.706
						c0.419,0.14,0.818,0.298,1.197,0.484c3.858,1.78,5.605,5.288,6.904,8.944C291.401,137.147,291.892,147.459,289.557,158.193z"/>
					<path style="fill:#FE8100;" d="M275.188,174.097c-0.475,0.658-2.571,3.051-4.819,3.743c-0.974,0.313-1.974,0.288-2.888-0.321
						c-3.021-2.03-1.409-4.382-1.409-4.382c-1.363-7.106-7.57-8.611-14.009-21.834c-4.893-10.021-4.482-20.513-4-25.003
						c0.155-1.43,0.319-2.252,0.319-2.252l4.617,0.16c-0.097,0.584-0.175,1.159-0.252,1.725c-0.102,0.719-0.174,1.419-0.246,2.101
						c-2.008,20.501,8.469,26.65,15.05,28.486c2.9,0.813,5.038,0.79,5.038,0.79c0.227,0.412,0.431,0.911,0.633,1.466
						C274.944,163.601,275.795,173.251,275.188,174.097z"/>
				</g>
				<g>
					<path style="fill:#FFF0C7;" d="M287.884,109.301c-0.128,4.252-1.495,8.423-4.36,11.637c-1.152,1.299-2.55,2.445-4.21,3.379
						c-1.905,1.071-3.89,1.946-5.917,2.637c-7.251,2.504-14.953,2.7-20.896,1.079c-0.83-0.221-1.62-0.48-2.371-0.785
						c-0.732-0.276-1.415-0.588-2.067-0.948c-1.646-0.866-3.014-1.943-4.021-3.201c-5.022-6.279-4.315-14.209-3.828-17.418
						c0.04-0.336,0.089-0.623,0.125-0.843c0.41-2.393-0.497-13.499,4.239-20.395c4.736-6.905,11.376,5.208,11.677,5.7
						c0,0,3.17-1.451,7.799-1.907c1.594-0.157,3.368-0.201,5.24-0.021c1.334,0.123,2.722,0.364,4.144,0.74
						c1.078,0.297,2.172,0.672,3.273,1.163c0.56,0.231,1.11,0.491,1.668,0.789c0.738,0.391,1.444,0.849,2.11,1.363
						c0.469,0.363,0.908,0.744,1.337,1.154c1.165,1.129,2.179,2.444,3.034,3.89c1.537,2.615,2.53,5.654,2.885,8.767
						C287.872,107.143,287.912,108.223,287.884,109.301z"/>
					<path style="fill:#FE8100;" d="M284.861,97.313c-1.314-0.161-3.109-0.03-5.442,0.852c-0.751,0.282-1.418,0.635-1.991,1.039
						c-3.879,2.716-3.931,7.588-3.931,7.588l-2.421,0.388c0,0-5.353-7.562-16.415-7.944c-7.656-0.264-12.306,3.87-14.446,6.444
						c0.04-0.336,0.089-0.623,0.125-0.843c0.41-2.393-0.497-13.499,4.239-20.395c4.736-6.905,11.376,5.208,11.677,5.7
						c0,0,3.17-1.451,7.799-1.907c1.594-0.157,3.368-0.201,5.24-0.021c1.334,0.123,2.722,0.364,4.144,0.74
						c1.078,0.297,2.172,0.672,3.273,1.163c0.56,0.231,1.11,0.491,1.668,0.789c0.738,0.391,1.444,0.849,2.11,1.363
						c0.469,0.363,0.908,0.744,1.337,1.154C282.991,94.551,284.005,95.867,284.861,97.313z"/>
					<path style="fill:#FE8100;" d="M282.094,94.886c0,0-4.168-4.805-13.114-5.913c0,0,0.116-0.285,0.315-0.759
						c0.973-2.23,4.021-8.528,7.029-7.49c2.893,0.986,4.822,9.277,5.503,12.7C281.998,94.325,282.094,94.886,282.094,94.886z"/>
					<g>
						<path style="fill:#FF47AD;" d="M244.517,100.166c0,0,2.405-4.572,10.1-8.96c0,0-3.079-8.453-6.506-6.805
							C244.684,86.048,243.766,94.041,244.517,100.166z"/>
						<path style="fill:#FF47AD;" d="M273.438,88.956c0,0,0.563-5.986,2.811-5.992c2.247-0.006,4.486,8.304,4.241,9.301
							C280.245,93.261,277.879,89.728,273.438,88.956z"/>
					</g>
				</g>
				<path style="fill:#912D1E;" d="M272.312,108.671c1.478,0.05,3.84-4.303-0.2-3.509
					C268.072,105.955,270.548,108.611,272.312,108.671z"/>
				<g style="opacity:0.85;">
					<path style="fill:none;stroke:#6B2A10;stroke-width:0.9624;stroke-linecap:round;stroke-miterlimit:10;" d="M269.505,110.94
						c0,0,0.108,1.528,1.508,1.657c1.4,0.129,1.729-1.264,1.729-1.264s0.786,1.632,2.09,1.075c1.303-0.557,1.224-1.763,1.085-2.37"
						/>
					<path style="fill:none;stroke:#6B2A10;stroke-width:0.9624;stroke-linecap:round;stroke-miterlimit:10;" d="M272.472,108.676
						c0,0,0.346,1.616,0.269,2.657"/>
				</g>
				<path style="opacity:0.22;fill:#870707;" d="M289.557,158.193c-5.594,0.789-11.208,1.067-16.334,0.582
					c1.721,4.826,2.572,14.476,1.965,15.322c-0.475,0.658-2.571,3.051-4.819,3.743c0.49-7.225-1.663-14.599-5.969-20.42
					c0.262-0.068,0.534-0.136,0.797-0.213c0.787-0.214,1.575-0.437,2.354-0.689c3.176-1.056,6.175-2.579,7.71-5.454
					c1.061-1.986,1.218-4.311,1.353-6.55c0.374-6.073,0.447-12.937-3.217-17.561c-0.378-0.485-0.796-0.933-1.263-1.363
					c0.526-0.454,1.033-0.927,1.503-1.431c5.665-5.929,7.662-15.221,4.72-22.911c-0.274-0.713-0.578-1.387-0.931-2.045
					c-2.76-5.402-7.684-8.962-13.373-10.968c1.594-0.157,3.368-0.201,5.24-0.021c0.973-2.23,4.021-8.528,7.029-7.49
					c2.893,0.986,4.822,9.277,5.503,12.7c1.165,1.129,2.179,2.444,3.034,3.89c1.537,2.615,2.53,5.654,2.885,8.767
					c0.127,1.064,0.167,2.144,0.139,3.221c-0.128,4.252-1.495,8.423-4.36,11.637c3.858,1.78,5.605,5.288,6.904,8.944
					C291.401,137.147,291.892,147.459,289.557,158.193z"/>
				<g>
					<g style="opacity:0.74;">
						<path style="fill:none;stroke:#6B2A10;stroke-width:1.7324;stroke-linecap:round;stroke-miterlimit:10;" d="M248.359,109.767
							c0,0,1.624-5.18,7.241-5.176c5.617,0.004,7.685,5.211,7.685,5.211"/>
						<path style="fill:none;stroke:#6B2A10;stroke-width:1.7324;stroke-linecap:round;stroke-miterlimit:10;" d="M278.774,107.445
							c0,0,0.63-4.951,4.207-5.951s4.235,3.194,4.235,3.194"/>
					</g>
					<g style="opacity:0.51;">
						
							<ellipse transform="matrix(1 -0.0043 0.0043 1 -0.4904 1.0717)" style="fill:#EF6767;" cx="247.616" cy="113.961" rx="4.269" ry="1.805"/>
						<path style="fill:#EF6767;" d="M287.884,109.301c-1.708-0.184-2.966-0.834-2.978-1.615c0.007-0.751,1.194-1.394,2.839-1.606
							C287.872,107.143,287.912,108.223,287.884,109.301z"/>
					</g>
				</g>
			</g>
			<g>
				<g>
					<g>
						<path style="fill:#FBBE88;" d="M374.742,428.479l-0.611,17.698c-0.013,0.366-0.02,0.577-0.02,0.577l-26.067-0.9
							c0,0,0-0.01-0.009-0.029c-0.011-0.241-0.156-1.883-0.34-4.105c-0.046-0.637-0.109-1.313-0.152-2.027
							c-0.062-0.715-0.123-1.449-0.174-2.202c-0.358-4.962-0.658-10.24-0.282-9.967c0.31,0.223,5.647,0.436,11.555,0.601
							C366.225,428.339,374.742,428.479,374.742,428.479z"/>
						<g>
							<g>
								<path style="fill:#5754CC;" d="M397.58,472.122c-0.272,0.077-0.823,0.126-1.594,0.147c-2.101,0.043-5.889-0.126-10.492-0.42
									c-0.394-0.033-0.788-0.056-1.201-0.09c-1.653-0.105-3.401-0.223-5.197-0.362c-1.739-0.127-3.515-0.266-5.321-0.405
									c-1.873-0.151-3.765-0.303-5.637-0.464c-1.709-0.146-3.399-0.291-5.041-0.434c-1.594-0.132-3.14-0.272-4.618-0.41
									c-1.911-0.162-3.706-0.33-5.328-0.483c-1.891-0.171-3.561-0.325-4.906-0.449c-1.968-0.184-3.263-0.315-3.599-0.346
									c-2.313-0.224-2.373-2.682-1.308-4.234c0,0,0,0,0.01,0c0.307,0.02,6.609,0.488,14.668,1.094
									c3.362,0.251,7.041,0.523,10.719,0.804c5.379,0.398,10.768,0.796,15.186,1.131c5.168,0.381,9.02,0.668,10.038,0.741
									c3.784,0.285,6.137-1.733,6.345-1.919c0,0,0.01,0,0.01-0.009C400.314,466.015,401.083,471.088,397.58,472.122z"/>
								<g>
									<path style="fill:none;stroke:#AA99FF;stroke-width:0.9624;stroke-miterlimit:10;" d="M396.748,468.476
										c0,0-0.123,2.133-0.761,3.789"/>
									<path style="fill:none;stroke:#AA99FF;stroke-width:0.9624;stroke-miterlimit:10;" d="M390.637,467.975
										c0,0,0.056,2.573-0.719,4.08"/>
									<path style="fill:none;stroke:#AA99FF;stroke-width:0.9624;stroke-miterlimit:10;" d="M384.716,467.771
										c0,0,0.363,2.108-0.426,3.997"/>
									<path style="fill:none;stroke:#AA99FF;stroke-width:0.9624;stroke-miterlimit:10;" d="M379.676,467.163
										c0,0-0.372,2.575-0.577,4.238"/>
									<path style="fill:none;stroke:#AA99FF;stroke-width:0.9624;stroke-miterlimit:10;" d="M374.477,466.984
										c0,0-0.672,2.709-0.725,4.233"/>
									<path style="fill:none;stroke:#AA99FF;stroke-width:0.9624;stroke-miterlimit:10;" d="M368.731,466.064
										c0,0-0.848,3.447-0.594,4.464"/>
									<path style="fill:none;stroke:#AA99FF;stroke-width:0.9624;stroke-miterlimit:10;" d="M363.666,466.032
										c0,0-0.803,2.648-0.569,4.065"/>
									<path style="fill:none;stroke:#AA99FF;stroke-width:0.9624;stroke-miterlimit:10;" d="M359.049,465.73
										c0,0-0.924,1.858-0.567,3.961"/>
									<path style="fill:none;stroke:#AA99FF;stroke-width:0.9624;stroke-miterlimit:10;" d="M353.711,465.399
										c0,0-0.938,2.276-0.561,3.81"/>
									<path style="fill:none;stroke:#AA99FF;stroke-width:0.9624;stroke-miterlimit:10;" d="M348.811,464.94
										c0,0-1.092,2.568-0.561,3.814"/>
									<path style="fill:none;stroke:#AA99FF;stroke-width:0.9624;stroke-miterlimit:10;" d="M345.21,464.527
										c0,0-1.375,2.121-0.568,3.884"/>
								</g>
							</g>
							<path style="fill:#52D9D2;" d="M400.314,466.015c0,0.01-0.01,0.009-0.01,0.009c-0.462,1.38-1.823,2.325-3.561,2.448
								c-0.386,0.035-0.79,0.021-1.203-0.032c-0.767-0.104-2.495-0.25-4.907-0.42c-1.825-0.131-4.035-0.274-6.524-0.437
								c-1.403-0.097-2.892-0.186-4.449-0.288c-3.449-0.225-7.206-0.48-11.029-0.766c-1.662-0.115-3.343-0.241-5.014-0.366
								c-1.546-0.121-3.083-0.241-4.6-0.361c-0.355-0.032-0.701-0.063-1.047-0.094c-5.55-0.471-10.704-0.986-14.623-1.535
								c0,0,0.364-10.552,1.177-19.017c0.121-1.286,0.261-2.524,0.406-3.665c0.082-0.7,0.172-1.362,0.271-1.984l2.343,0.187
								l12.618,1.033l14.117,1.142l2.065,0.168c0,0-0.077,0.826-0.187,2.074c-0.051,0.624-0.114,1.354-0.18,2.132
								c-0.098,1.152-0.209,2.429-0.319,3.668c-0.022,0.346-0.053,0.692-0.084,1.027c-0.116,1.392-0.228,2.689-0.309,3.659
								c-0.07,0.912-0.121,1.546-0.126,1.71c-0.03,0.866,19.343,0.668,23.402,4.718
								C400.366,462.839,400.785,464.645,400.314,466.015z"/>
							<path style="fill:#FF45D4;" d="M343.346,464.17c3.92,0.552,9.072,1.068,14.626,1.537c0.571-5.238,0.742-19.216-13.449-20.548
								C343.71,453.625,343.346,464.17,343.346,464.17z"/>
							<path style="fill:#412975;" d="M347.029,457.939c-0.058,1.675,1.253,3.079,2.928,3.137c1.675,0.058,3.079-1.253,3.137-2.928
								c0.058-1.675-1.253-3.079-2.928-3.137C348.491,454.953,347.087,456.264,347.029,457.939z"/>
							<g>
								<path style="fill:#FF45D4;" d="M377.436,446.956l-0.279,2.513c-0.041,0.336-0.347,0.576-0.673,0.535l-0.825-0.096
									l-9.776-1.079c-0.259-0.028-0.454-0.228-0.446-0.458l0.07-2.039c0.009-0.25,0.237-0.444,0.526-0.434l10.811,0.373
									C377.2,446.284,377.468,446.601,377.436,446.956z"/>
								<path style="fill:#FF45D4;" d="M377.274,451.66l-0.279,2.513c-0.04,0.336-0.347,0.575-0.673,0.535l-1.056-0.113
									l-9.545-1.062c-0.259-0.028-0.454-0.228-0.447-0.458l0.07-2.039c0.009-0.25,0.237-0.444,0.525-0.435l10.811,0.373
									C377.037,450.987,377.305,451.305,377.274,451.66z"/>
							</g>
							<path style="fill:#FF45D4;" d="M377.663,440.387l-0.096,2.789c-0.02,0.568-0.516,1.013-1.083,0.964l-0.326-0.031
								l-1.949-0.164l-13.789-1.16l-12.723-1.065l-2.766-0.23l-0.49-0.046c-0.518-0.047-0.908-0.474-0.919-0.985l-0.023-2.139
								c0.001-0.578,0.489-1.042,1.065-1.003l2.806,0.174l12.482,0.797l14.52,0.915l2.354,0.149
								C377.264,439.391,377.682,439.848,377.663,440.387z"/>
						</g>
						<path style="opacity:0.17;fill:#000C7A;" d="M400.314,466.015c0,0,0.768,5.073-2.734,6.107
							c-0.272,0.077-0.823,0.126-1.594,0.147c-2.101,0.043-5.889-0.126-10.492-0.42c-0.201-0.874-0.422-1.729-0.702-2.538
							c-0.201-0.594-0.431-1.171-0.682-1.728c-0.063-0.127-0.126-0.255-0.189-0.382c-0.909-1.832-2.194-3.398-4.07-4.551
							c-5.318-3.275-13.584-1.509-17.016-6.722c-1.189-1.823-1.429-4.075-1.643-6.239c-0.106-1.111-0.231-2.242-0.355-3.393
							c-0.134-1.151-0.276-2.321-0.418-3.51c-0.082-0.687-0.174-1.374-0.256-2.06c-0.107-0.803-0.214-1.616-0.311-2.438
							c-0.424-3.328-0.856-6.732-1.209-10.163c7.581,0.214,16.099,0.354,16.099,0.354l-0.37,10.725l2.354,0.149
							c0.538,0.038,0.956,0.495,0.937,1.034l-0.096,2.789c-0.02,0.568-0.516,1.013-1.083,0.964l-0.326-0.031
							c-0.051,0.624-0.114,1.354-0.18,2.132l0.866,0.03c0.356,0.012,0.624,0.33,0.593,0.685l-0.279,2.513
							c-0.041,0.336-0.347,0.576-0.673,0.535l-0.825-0.096c-0.022,0.346-0.053,0.692-0.084,1.027l1.106,0.038
							c0.356,0.012,0.624,0.33,0.593,0.685l-0.279,2.513c-0.04,0.336-0.347,0.575-0.673,0.535l-1.056-0.113
							c-0.07,0.912-0.121,1.546-0.126,1.71c-0.03,0.866,19.343,0.668,23.402,4.718C400.366,462.839,400.785,464.645,400.314,466.015
							z"/>
					</g>
					<g>
						<path style="fill:#FBBE88;" d="M310.531,436.21c-0.102,0.738-0.214,1.466-0.315,2.165c-0.102,0.709-0.202,1.38-0.301,2.012
							c-0.289,1.945-0.524,3.458-0.609,3.956c-0.014,0.115-0.025,0.172-0.025,0.172l-26.067-0.9c0,0,0.007-0.212,0.02-0.577
							l0.611-17.698c0,0,6.537,0.341,13.258,0.631c6.913,0.306,14.022,0.552,14.396,0.324
							C311.893,426.049,311.23,431.293,310.531,436.21z"/>
						<g>
							<g>
								<path style="fill:#5754CC;" d="M310.519,467.228c-0.337,0.008-1.639,0.049-3.624,0.096c-1.349,0.03-3.017,0.069-4.915,0.109
									c-1.629,0.04-3.441,0.083-5.358,0.113c-0.434,0.014-0.877,0.027-1.33,0.031c-1.07,0.021-2.168,0.041-3.296,0.06
									c-1.648,0.03-3.344,0.058-5.059,0.085c-1.879,0.031-3.777,0.052-5.656,0.074c-1.811,0.015-3.603,0.03-5.346,0.037
									c-1.801,0.015-3.544,0.012-5.2,0.003c-5.152-0.005-9.425-0.094-11.7-0.298c-0.768-0.075-1.314-0.161-1.58-0.257
									c-3.432-1.274-2.306-6.281-2.306-6.281c0,0.01,0.009,0.01,0.009,0.01c0.195,0.199,2.403,2.375,6.188,2.352
									c1.897-0.012,13.61-0.069,25.303-0.128c3.092-0.018,6.184-0.037,9.093-0.061c0.559,0,1.117,0,1.656-0.001
									c7.59-0.046,13.61-0.069,14.573-0.074c0.048,0.002,0.087-0.007,0.135-0.005
									C313.061,464.716,312.832,467.164,310.519,467.228z"/>
								<g>
									<path style="fill:none;stroke:#AA99FF;stroke-width:0.9624;stroke-miterlimit:10;" d="M258.534,463.702
										c0,0-0.025,2.136,0.498,3.833"/>
									<path style="fill:none;stroke:#AA99FF;stroke-width:0.9624;stroke-miterlimit:10;" d="M264.664,463.625
										c0,0-0.233,2.563,0.436,4.12"/>
									<path style="fill:none;stroke:#AA99FF;stroke-width:0.9624;stroke-miterlimit:10;" d="M270.585,463.829
										c0,0-0.508,2.078,0.149,4.017"/>
									<path style="fill:none;stroke:#AA99FF;stroke-width:0.9624;stroke-miterlimit:10;" d="M275.655,463.571
										c0,0,0.193,2.595,0.283,4.268"/>
									<path style="fill:none;stroke:#AA99FF;stroke-width:0.9624;stroke-miterlimit:10;" d="M280.854,463.75
										c0,0,0.483,2.749,0.431,4.273"/>
									<path style="fill:none;stroke:#AA99FF;stroke-width:0.9624;stroke-miterlimit:10;" d="M286.65,463.229
										c0,0,0.608,3.497,0.284,4.494"/>
									<path style="fill:none;stroke:#AA99FF;stroke-width:0.9624;stroke-miterlimit:10;" d="M291.705,463.547
										c0,0,0.619,2.697,0.287,4.095"/>
									<path style="fill:none;stroke:#AA99FF;stroke-width:0.9624;stroke-miterlimit:10;" d="M296.332,463.564
										c0,0,0.794,1.918,0.292,3.991"/>
									<path style="fill:none;stroke:#AA99FF;stroke-width:0.9624;stroke-miterlimit:10;" d="M301.68,463.602
										c0,0,0.778,2.335,0.297,3.839"/>
									<path style="fill:none;stroke:#AA99FF;stroke-width:0.9624;stroke-miterlimit:10;" d="M306.6,463.483
										c0,0,0.913,2.637,0.297,3.843"/>
									<path style="fill:none;stroke:#AA99FF;stroke-width:0.9624;stroke-miterlimit:10;" d="M310.221,463.319
										c0,0,1.225,2.211,0.298,3.914"/>
								</g>
							</g>
							<path style="fill:#52D9D2;" d="M312.106,463.094c-0.048-0.002-0.087,0.007-0.135,0.005
								c-3.929,0.278-9.048,0.429-14.559,0.518c-0.347,0.007-0.694,0.014-1.051,0.022c-0.221-0.008-0.443,0.004-0.665,0.006
								c-1.31,0.012-2.63,0.025-3.959,0.037c-1.676,0.019-3.352,0.019-5.018,0.019c-3.834,0.022-7.599,0.017-11.056,0.003
								c-4.304-0.014-8.136-0.04-10.996-0.033c-2.417,0.003-4.152,0.03-4.924,0.08c-0.425,0.033-0.828,0.01-1.212-0.051
								c-1.715-0.242-3.008-1.288-3.374-2.688c0,0-0.01,0-0.009-0.01c-0.375-1.409,0.158-3.173,2.103-4.858
								c4.329-3.76,23.652-2.226,23.681-3.092c0.006-0.163-0.001-0.799-0.008-1.714c-0.015-0.973-0.037-2.274-0.056-3.671
								c-0.008-0.337-0.015-0.684-0.013-1.031c-0.024-1.243-0.048-2.525-0.075-3.681c-0.012-0.781-0.025-1.513-0.032-2.139
								c-0.024-1.253-0.044-2.082-0.044-2.082l2.678-0.033l13.989-0.172l12.842-0.154l1.734-0.017
								c0.055,0.628,0.1,1.294,0.143,1.998c0.066,1.148,0.11,2.392,0.152,3.684C312.471,452.542,312.106,463.094,312.106,463.094z"
								/>
							<path style="fill:#FF45D4;" d="M312.106,463.094c-0.048-0.002-0.087,0.007-0.135,0.005
								c-3.929,0.278-9.048,0.429-14.559,0.518c-0.005-0.145-0.009-0.289-0.014-0.444c-0.134-5.032,0.775-16.306,11.181-18.682
								c0.233-0.059,0.476-0.109,0.727-0.148c0.911-0.181,1.887-0.272,2.938-0.303C312.471,452.542,312.106,463.094,312.106,463.094
								z"/>
							<path style="fill:#412975;" d="M308.861,456.621c-0.058,1.675-1.462,2.986-3.137,2.928c-1.675-0.058-2.986-1.462-2.928-3.137
								c0.058-1.675,1.462-2.986,3.137-2.928C307.608,453.541,308.919,454.946,308.861,456.621z"/>
							<g>
								<path style="fill:#FF45D4;" d="M279.288,443.563c-0.015-0.355,0.276-0.647,0.63-0.635l10.819,0.374
									c0.282,0.01,0.503,0.219,0.495,0.467l-0.07,2.035c-0.008,0.233-0.217,0.42-0.482,0.431l-10.652,0.441
									c-0.336,0.014-0.62-0.247-0.634-0.584L279.288,443.563z"/>
								<path style="fill:#FF45D4;" d="M279.125,448.267c-0.015-0.355,0.275-0.647,0.63-0.635l10.819,0.374
									c0.282,0.01,0.503,0.219,0.495,0.467l-0.07,2.035c-0.008,0.233-0.217,0.42-0.482,0.431l-10.652,0.441
									c-0.336,0.014-0.621-0.247-0.635-0.584L279.125,448.267z"/>
							</g>
							<path style="fill:#FF45D4;" d="M313.729,437.293l-0.17,2.132c-0.037,0.509-0.465,0.908-0.975,0.92l-0.492,0.012l-2.177,0.031
								l-12.622,0.18l-13.981,0.211l-2.563,0.037l-0.318,0.008c-0.569,0.009-1.034-0.469-1.014-1.037l0.096-2.789
								c0.019-0.539,0.467-0.966,1.006-0.967l2.956,0.015l13.97,0.088l13.085,0.076l2.215,0.009
								C313.323,436.219,313.778,436.717,313.729,437.293z"/>
						</g>
						<path style="opacity:0.17;fill:#000C7A;" d="M312.584,440.344l-0.492,0.012c0.066,1.148,0.11,2.392,0.152,3.684
							c0.226,8.502-0.138,19.053-0.138,19.053c0.955,1.622,0.726,4.07-1.587,4.134c-0.337,0.008-1.639,0.049-3.624,0.096
							c-1.349,0.03-3.017,0.069-4.915,0.109c-1.629,0.04-3.441,0.083-5.358,0.113c-0.434,0.014-0.877,0.027-1.33,0.031
							c0.142-1.314,0.273-2.62,0.405-3.934c0.015-0.163,0.03-0.317,0.045-0.47c0.624-6.344,1.094-12.703,1.4-19.077
							c0.06-1.173,0.11-2.356,0.151-3.529c0.033-0.683,0.056-1.356,0.08-2.039c0.025-0.731,0.051-1.462,0.066-2.193l0.007-0.202
							c0.067-3.06-0.263-6.606-0.342-10.162c6.913,0.306,14.022,0.552,14.396,0.324c0.394-0.246-0.269,4.998-0.968,9.915
							l2.215,0.009c0.578,0.001,1.032,0.498,0.984,1.074l-0.17,2.132C313.522,439.934,313.095,440.333,312.584,440.344z"/>
					</g>
				</g>
				<g>
					<path style="fill:#7E73FE;" d="M386.932,427.697c-6.803,3.733-15.168,5.312-23.216,5.776
						c-15.41,0.883-29.678-2.306-29.678-2.306c-0.854-29.652-4.056-146.635-4.204-152.1l-0.003-0.202
						c-0.992,0.293-2.064,0.362-3.064,0.318c-0.731-0.025-1.402-0.116-1.977-0.203c-0.948-0.158-1.577-0.343-1.577-0.343
						c0.091,14.93-0.836,151.647-0.836,151.647c-6.183,1.674-12.559,2.263-18.634,2.207c-17.157-0.121-31.76-5.315-31.76-5.315
						c3.98-32.711,10.547-113.263,14.018-157.153c0.051-0.644,0.102-1.287,0.153-1.911c0.482-6.156,0.909-11.534,1.242-15.876
						c0.577-7.492,0.911-11.881,0.911-11.881c4.142,1.376,8.46,2.363,12.828,3.043c0.642,0.099,1.274,0.188,1.917,0.268
						c6.796,0.909,13.685,1.099,20.271,0.845c0.656-0.025,1.302-0.051,1.948-0.087c8.528-0.428,16.444-1.541,22.841-2.726
						c0.63-0.113,1.25-0.236,1.852-0.36c8.251-1.603,13.535-3.202,13.535-3.202c1.558,9.26,3.078,19.068,4.559,29.164
						c0.093,0.658,0.195,1.316,0.288,1.984C378.866,341.709,386.932,427.697,386.932,427.697z"/>
					<g style="opacity:0.69;">
						<path style="fill:#412975;" d="M326.769,279.182c-0.731-0.025-1.402-0.116-1.977-0.203
							c-0.667-4.674-2.837-21.573-1.467-34.469c0.656-0.025,1.302-0.051,1.948-0.087
							C323.795,257.652,326.223,275.474,326.769,279.182z"/>
					</g>
					<g style="opacity:0.53;">
						<g>
							<path style="fill:#412975;" d="M368.347,269.283c-15.825-1.885-19.417-19.459-20.234-27.586
								c0.63-0.113,1.25-0.236,1.852-0.36c0.646,7.505,3.72,23.886,18.094,25.962C368.152,267.957,368.255,268.615,368.347,269.283z
								"/>
						</g>
						<g>
							<path style="fill:#412975;" d="M303.053,243.665c-0.973,12.014-4.199,20.079-9.601,23.965
								c-2.844,2.049-5.631,2.425-7.45,2.391c0.051-0.644,0.102-1.287,0.153-1.911c1.512,0.014,3.825-0.34,6.216-2.068
								c3.418-2.482,7.639-8.432,8.766-22.646C301.778,243.496,302.411,243.585,303.053,243.665z"/>
						</g>
					</g>
					<path style="opacity:0.17;fill:#000C7A;" d="M386.932,427.697c-6.803,3.733-15.168,5.312-23.216,5.776
						c-2.057-46.123-3.063-101.213-12.935-166.414c-0.571-3.814-2.292-7.793-5.614-9.766c-2.548-1.513-5.701-1.41-8.66-1.32
						c-15.163,0.43-33.864,0.68-49.11-3.738c0.577-7.492,0.911-11.881,0.911-11.881c4.142,1.376,8.46,2.363,12.828,3.043
						c0.642,0.099,1.274,0.188,1.917,0.268c16.344,2.182,33.285,0.206,45.06-1.968c0.63-0.113,1.25-0.236,1.852-0.36
						c8.251-1.603,13.535-3.202,13.535-3.202c1.558,9.26,3.078,19.068,4.559,29.164c0.093,0.658,0.195,1.316,0.288,1.984
						C378.866,341.709,386.932,427.697,386.932,427.697z"/>
					<path style="opacity:0.17;fill:#000C7A;" d="M323.215,278.635c0.091,14.93-0.836,151.647-0.836,151.647
						c-6.183,1.674-12.559,2.263-18.634,2.207c4.955-50.628,8.587-158.563,8.587-158.563c6.922-1.042,17.396-0.68,17.396-0.68
						l0.104,5.618C326.914,279.726,323.215,278.635,323.215,278.635z"/>
				</g>
			</g>
			<g>
				<path style="fill:#A84F27;" d="M346.163,185.813c-2.355,0.708-4.927,1.294-7.725,1.727c-4.89,0.775-10.477,1.112-16.81,0.999
					c-33.146-0.596-39.209-17.148-38.256-32.484c0.171-2.729,0.563-5.412,1.065-7.966c2.514-12.837,2.522-17.526,1.652-24.413
					c-0.272-2.167-0.632-4.558-1.032-7.499c-1.629-11.959,1.152-18.575,4.306-24.302c0.082-0.142,0.154-0.284,0.236-0.425
					c0,0-6.498-2.305-5.832-12.393s9.706-11.385,11.09-14.39c0.593-1.279,2.54-3.832,6.486-5.997
					c5.291-2.899,14.178-5.096,28.161-2.591c24.406,4.368,30.997,17.923,31.958,31.92s-3.271,29.741,3.319,57.251
					C369.689,165.737,365.013,180.108,346.163,185.813z"/>
				<path style="opacity:0.22;fill:#541D1D;" d="M338.437,187.539c-4.89,0.775-10.477,1.112-16.81,0.999
					c-33.146-0.596-39.209-17.148-38.256-32.484c2.019-2.136,4.243-4.062,6.679-5.73c3.147-2.154,6.703-3.919,9.004-6.95
					c2.31-3.04,2.798-7.954-0.192-10.321c-1.088-0.856-2.451-1.26-3.723-1.785c-3.959-1.639-6.851-4.339-9.05-7.593
					c-0.272-2.167-0.632-4.558-1.032-7.499c-1.629-11.959,1.152-18.575,4.306-24.302c2.95,0.189,6.06,1.047,8.737,2.43
					c11.893,6.15,20.868,17.025,26.682,29.09c5.805,12.065,8.678,25.329,10.667,38.562
					C336.726,170.444,337.664,178.98,338.437,187.539z"/>
				<g style="opacity:0.83;">
					<g>
						<path style="fill:#6B2A10;" d="M299.477,88.903c-0.486-0.632-1.008-1.266-1.416-1.983c-0.403-0.717-0.719-1.492-0.927-2.303
							c-0.392-1.626-0.333-3.377,0.167-4.976c0.516-1.594,1.246-3.062,2.223-4.407c0.986-1.295,2.278-2.535,3.895-2.888
							c-0.732,0.341-1.343,0.858-1.866,1.441c-0.536,0.571-0.99,1.211-1.408,1.869c-0.792,1.336-1.467,2.794-1.923,4.261
							c-0.477,1.467-0.567,3.022-0.355,4.549C298.103,86.002,298.752,87.452,299.477,88.903z"/>
					</g>
					<g>
						<path style="fill:#6B2A10;" d="M317.913,89.54c-1.331-0.525-2.264-1.816-2.794-3.135c-0.565-1.339-0.763-2.779-0.819-4.203
							c-0.029-1.43,0.167-2.896,0.73-4.236c0.561-1.325,1.492-2.547,2.751-3.198c-1.027,0.954-1.636,2.2-2.046,3.456
							c-0.377,1.277-0.516,2.615-0.474,3.954c0.035,1.343,0.18,2.697,0.562,3.974C316.213,87.414,316.793,88.691,317.913,89.54z"/>
					</g>
					<g>
						<path style="fill:#6B2A10;" d="M329.682,90.06c-0.442-1.112-0.614-2.323-0.629-3.524c-0.021-1.206,0.139-2.418,0.462-3.585
							c0.337-1.161,0.788-2.299,1.446-3.314c0.613-1.038,1.426-1.944,2.316-2.728c-0.585,1.044-1.191,2.027-1.655,3.084
							c-0.495,1.036-0.877,2.116-1.179,3.213c-0.322,1.094-0.512,2.223-0.642,3.365C329.678,87.715,329.632,88.872,329.682,90.06z"
							/>
					</g>
				</g>
				<path style="opacity:0.22;fill:#541D1D;" d="M346.163,185.813c2.366-32.545,9.48-65.64,5.842-98.065
					c-0.936-8.314-2.903-17.165-9.104-22.772c-5.192-4.686-12.457-6.276-19.43-6.805c-6.022-0.458-14.497-0.732-22.128,0.497
					c5.291-2.899,14.178-5.096,28.161-2.591c24.406,4.368,30.997,17.923,31.958,31.92s-3.271,29.741,3.319,57.251
					C369.689,165.737,365.013,180.108,346.163,185.813z"/>
				<path style="opacity:0.53;fill:#CC6E2F;" d="M287.884,74.887c-1.872,2.143-2.394,5.374-1.291,7.997
					c0.431,1.026,1.131,1.991,2.136,2.47c1.005,0.479,2.344,0.349,3.063-0.5c0.74-0.874,0.64-2.149,0.644-3.294
					c0.004-1.114,0.144-2.228,0.418-3.308c0.162-0.639,0.373-1.282,0.344-1.941c-0.037-0.838-0.489-1.648-1.182-2.121
					C290.668,73.275,288.892,73.733,287.884,74.887z"/>
				<path style="opacity:0.53;fill:#CC6E2F;" d="M303.918,76.973c-2.095,2.135-2.668,5.365-1.417,7.993
					c0.489,1.028,1.28,1.996,2.411,2.479c1.132,0.483,2.637,0.36,3.441-0.487c0.828-0.871,0.71-2.147,0.709-3.292
					c-0.001-1.114,0.153-2.227,0.456-3.306c0.18-0.639,0.413-1.28,0.378-1.94c-0.045-0.839-0.556-1.651-1.338-2.126
					C307.042,75.372,305.047,75.823,303.918,76.973z"/>
				<path style="opacity:0.53;fill:#CC6E2F;" d="M319.986,78.181c-1.949,1.987-2.482,4.99-1.318,7.435
					c0.455,0.956,1.19,1.857,2.243,2.306c1.053,0.449,2.453,0.335,3.201-0.453c0.77-0.81,0.661-1.997,0.66-3.062
					c-0.001-1.036,0.142-2.072,0.424-3.076c0.167-0.594,0.385-1.191,0.351-1.804c-0.042-0.78-0.518-1.536-1.245-1.978
					C322.892,76.692,321.036,77.111,319.986,78.181z"/>
				<path style="opacity:0.53;fill:#CC6E2F;" d="M335.878,83.438c-1.807,2.64-2.129,6.461-0.798,9.456
					c0.521,1.172,1.317,2.253,2.399,2.744c1.082,0.49,2.471,0.246,3.163-0.799c0.712-1.075,0.52-2.562,0.445-3.903
					c-0.073-1.305-0.003-2.619,0.209-3.903c0.125-0.76,0.301-1.527,0.225-2.297c-0.096-0.979-0.623-1.897-1.38-2.401
					C338.674,81.355,336.851,82.015,335.878,83.438z"/>
			</g>
			<g>
				<g>
					<g>
						<path style="fill:#FBBE88;" d="M270.015,268.131c-0.858,3.091-2.43,4.539-3.743,5.215c-1.235,0.632-2.235,0.597-2.235,0.597
							l0.251-7.262l-5.29-0.183l-0.492,14.236c0,0-5.829,1.484-8.424-7.032c-1.514-4.954-1.497-11.579-1.221-16.24
							c0.193-3.354,0.534-5.692,0.534-5.692l21.111,2.174C270.504,253.943,271.665,262.169,270.015,268.131z"/>
						<path style="opacity:0.32;fill:#C45D54;" d="M270.015,268.131c-0.858,3.091-2.43,4.539-3.743,5.215
							c0.127-0.612,0.264-1.214,0.39-1.807c3.037-14.311-9.034-10.838-17.802-14.078c0.193-3.354,0.534-5.692,0.534-5.692
							l21.111,2.174C270.504,253.943,271.665,262.169,270.015,268.131z"/>
					</g>
					<g>
						<path style="fill:#E06C82;" d="M258.602,268.011l-0.737,21.344l5.782,0.2l0.737-21.344c0.055-1.597-1.194-2.936-2.791-2.991
							l0,0C259.996,265.164,258.657,266.414,258.602,268.011z"/>
						<path style="fill:#B74253;" d="M275.838,371.375c-0.914,3.878-4.702,6.771-9.33,7.209c-0.087,0.007-0.164,0.014-0.251,0.02
							c-4.279,0.382-9.983,0.455-16.428-0.596c-4.778-0.781-8.429-4.105-8.952-8.216c-1.664-13.164-4.419-44.644,2.211-74.057
							c0.944-4.185,5.105-7.287,10.128-7.451c4.049-0.13,9.315-0.083,15.199,0.496c0.134,0.014,0.278,0.029,0.422,0.044
							c5.048,0.511,8.992,3.98,9.547,8.275C280.149,310.699,282.831,341.792,275.838,371.375z"/>
						<path style="fill:#E06C82;" d="M257.878,379.869l-0.896-0.031c-1.035-0.036-1.845-0.904-1.809-1.939l3.075-89.024
							c0.036-1.035,0.904-1.845,1.939-1.809l0.896,0.031c1.035,0.036,1.845,0.904,1.809,1.939l-3.075,89.024
							C259.78,379.095,258.912,379.905,257.878,379.869z"/>
						<path style="opacity:0.22;fill:#351010;" d="M275.838,371.375c-0.914,3.878-4.702,6.771-9.33,7.209
							c-0.087,0.007-0.164,0.014-0.251,0.02c4.842-16.955,7.319-34.58,7.302-52.213c-0.019-12.558-1.197-25.571-5.135-37.571
							c0-0.01-0.009-0.029-0.008-0.039c0.134,0.014,0.278,0.029,0.422,0.044c5.048,0.511,8.992,3.98,9.547,8.275
							C280.149,310.699,282.831,341.792,275.838,371.375z"/>
					</g>
					<g>
						<path style="fill:#FF45D4;" d="M292.984,197.824c-1.324,1.803-2.544,3.677-3.67,5.594c-1.259,2.171-2.396,4.405-3.418,6.671
							c-0.928,2.067-1.761,4.157-2.508,6.25c-1.054,2.92-1.935,5.846-2.669,8.7c-0.579,2.253-1.069,4.451-1.489,6.584
							c-0.526,2.669-0.932,5.226-1.245,7.603c-0.335,2.454-0.567,4.718-0.723,6.726c-0.452,5.56-0.372,9.097-0.372,9.097
							c-4.169,1.079-8.263,1.4-12.015,1.29c-9.938-0.295-17.441-3.597-17.441-3.597c-0.217-3.754-0.214-7.461-0.001-11.113
							c0.128-2.297,0.331-4.572,0.602-6.826c0.492-3.931,1.184-7.788,2.065-11.552c0.51-2.236,1.077-4.431,1.711-6.595
							c1.388-4.786,3.02-9.381,4.818-13.749c0.873-2.146,1.793-4.243,2.73-6.271c2.268-4.881,4.679-9.43,7.085-13.565
							c1.239-2.134,2.474-4.161,3.696-6.064c2.556-4.014,4.998-7.512,7.148-10.395c4.474-6.028,7.616-9.435,7.616-9.435
							c3.405,29.682,7.698,39.779,8.065,40.59C292.975,197.805,292.984,197.824,292.984,197.824z"/>
						<g>
							<g>
								<path style="fill:#C927B2;" d="M277.985,239.227c-0.335,2.454-0.567,4.718-0.723,6.726
									c-1.262,0.014-2.504-0.009-3.725-0.052c-10.138-0.35-19.05-2.189-26.104-4.272c0.128-2.297,0.331-4.572,0.602-6.826
									C255.713,237.186,266.058,239.373,277.985,239.227z"/>
							</g>
							<g>
								<path style="fill:#C927B2;" d="M280.719,225.039c-0.579,2.253-1.069,4.451-1.489,6.584
									c-11.571-1.526-21.489-4.912-29.131-8.373c0.51-2.236,1.077-4.431,1.711-6.595
									C259.202,220.107,269.068,223.597,280.719,225.039z"/>
							</g>
							<g>
								<path style="fill:#C927B2;" d="M285.896,210.089c-0.928,2.067-1.761,4.157-2.508,6.25
									c-10.978-3.624-19.999-8.722-26.761-13.434c0.873-2.146,1.793-4.243,2.73-6.271
									C265.852,201.288,274.811,206.499,285.896,210.089z"/>
							</g>
							<g>
								<path style="fill:#C927B2;" d="M292.984,197.824c-1.324,1.803-2.544,3.677-3.67,5.594
									c-9.843-6.397-17.387-13.803-22.872-20.349c1.239-2.134,2.474-4.161,3.696-6.064c5.207,6.507,12.703,14.2,22.829,20.761
									C292.975,197.805,292.984,197.824,292.984,197.824z"/>
							</g>
						</g>
						<path style="opacity:0.32;fill:#660E54;" d="M292.984,197.824c-1.324,1.803-2.544,3.677-3.67,5.594
							c-1.259,2.171-2.396,4.405-3.418,6.671c-0.928,2.067-1.761,4.157-2.508,6.25c-1.054,2.92-1.935,5.846-2.669,8.7
							c-0.579,2.253-1.069,4.451-1.489,6.584c-0.526,2.669-0.932,5.226-1.245,7.603c-0.335,2.454-0.567,4.718-0.723,6.726
							c-0.452,5.56-0.372,9.097-0.372,9.097c-4.169,1.079-8.263,1.4-12.015,1.29c-1.528-8.749-2.426-17.601-0.788-26.27
							c1.685-8.927,6.004-17.146,10.91-24.797c2.107-3.279,4.357-6.533,5.602-10.236c2.554-7.577,0.557-15.842-1.448-23.586
							c-0.434-1.671-0.931-3.432-1.865-4.841c4.474-6.028,7.616-9.435,7.616-9.435c3.405,29.682,7.698,39.779,8.065,40.59
							C292.975,197.805,292.984,197.824,292.984,197.824z"/>
					</g>
				</g>
				<g>
					<path style="fill:#FF45D4;" d="M387.684,244.498c-1.85,0.851-3.895,1.531-6.118,2.033c-4.311,1.007-9.293,1.393-14.788,1.29
						c-3.734-0.062-7.363-0.399-10.831-0.923c-1.974-0.299-3.897-0.655-5.761-1.066c-5.563-1.203-10.582-2.831-14.83-4.47
						c-1.967-0.761-3.78-1.517-5.392-2.257c-5.671-2.555-9.006-4.683-9.006-4.683s5.543-19.396,12.603-29.746
						c0,0,2.424,1.471,6.031,3.261c1.562,0.767,3.354,1.599,5.262,2.406c2.696,1.133,5.635,2.198,8.546,2.953
						c1.938,0.5,3.861,0.856,5.686,0.986c1.287,0.093,2.52,0.087,3.681-0.066c0.31-0.037,0.62-0.094,0.92-0.151
						c3.811-0.754,4.162-2.832,2.992-5.212c-0.252-0.519-0.58-1.051-0.956-1.584c-0.597-0.849-1.328-1.712-2.108-2.538
						c-1.337-1.433-2.822-2.765-4.057-3.819c-0.318-0.281-0.627-0.532-0.908-0.763c-0.356-0.291-0.675-0.543-0.947-0.755
						c-0.535-0.413-0.863-0.656-0.863-0.656s0.453-2.796,1.025-7.64c0.966-8.172,2.268-22.187,2.331-38.488
						c0,0,6.207,4.875,13.763,13.89c1.285,1.537,2.615,3.191,3.95,4.971c3.758,4.964,7.628,10.847,11.094,17.563
						c0.866,1.686,1.702,3.42,2.507,5.2c1.575,3.473,3.008,7.144,4.262,10.991c0.94,2.902,1.693,5.634,2.259,8.196
						c0.542,2.426,0.916,4.702,1.132,6.828C400.472,233.085,396.07,240.637,387.684,244.498z"/>
					<path style="fill:#FF45D4;" d="M366.966,242.348c0,0-27.279,8.255-56.304,5.74c-8.258-0.699-16.659-2.28-24.61-5.164
						c0,0,0.241-3.362,1.162-9.378c0.326-2.184,0.76-4.721,1.302-7.592c0.671-3.54,1.513-7.565,2.582-12.016
						c0.519-2.197,1.099-4.498,1.731-6.893c0,0-0.079-0.234-0.208-0.672c-0.528-1.723-1.976-6.626-3.497-13.073
						c-0.587-2.514-1.195-5.27-1.75-8.159c-0.793-4.091-1.499-8.459-1.974-12.838c-0.293-2.678-0.499-5.352-0.591-7.975
						c-0.089-2.459-0.063-4.856,0.093-7.152c0,0,1.982-1.886,5.683-4.224c2.718-1.726,6.358-3.681,10.835-5.327
						c0.576-0.211,1.17-0.422,1.774-0.622c4.803-1.606,10.449-2.788,16.849-2.952c13.07-0.329,21.461,0.963,28.108,3.137l0.01,0
						c4.513,1.485,8.214,3.365,12.033,5.423c0,0,0.04,0.223,0.112,0.668c0.226,1.549,0.754,5.785,0.819,12.249
						c0.026,2.322-0.007,4.94-0.136,7.834c-0.158,3.75-0.487,7.957-1.041,12.57c-0.319,2.551-0.691,5.225-1.163,8.011
						c-0.488,2.969-1.086,6.068-1.785,9.299c0,0,0.508,1.173,1.296,3.175c0.726,1.836,1.688,4.382,2.712,7.345
						c1.19,3.469,2.466,7.52,3.525,11.707c0.636,2.487,1.194,5.03,1.609,7.519C366.705,236.262,367.018,239.451,366.966,242.348z"/>
					<g>
						<g>
							<path style="fill:#C927B2;" d="M364.535,225.469c-21.452,4.354-47.119,5.807-76.018,0.485
								c-0.542,2.87-0.977,5.407-1.302,7.592c10.842,1.992,21.254,3.065,31.171,3.407c17.525,0.605,33.53-1.057,47.758-3.965
								C365.729,230.498,365.171,227.956,364.535,225.469z"/>
						</g>
						<g>
							<path style="fill:#C927B2;" d="M358.298,206.417c-19.073,3.213-41.172,4-65.677-0.044c0.129,0.438,0.208,0.672,0.208,0.672
								c-0.632,2.395-1.212,4.696-1.731,6.893c9.546,1.591,18.742,2.467,27.562,2.772c15.332,0.529,29.511-0.685,42.35-2.948
								C359.986,210.799,359.024,208.252,358.298,206.417z"/>
						</g>
						<g>
							<path style="fill:#C927B2;" d="M287.374,185.14c0.555,2.889,1.163,5.645,1.75,8.159c10.357,1.831,20.309,2.83,29.812,3.158
								c14.351,0.496,27.676-0.527,39.85-2.514c0.472-2.786,0.843-5.46,1.163-8.011C339.147,189.577,314.687,190.388,287.374,185.14
								z"/>
						</g>
						<g>
							<path style="fill:#C927B2;" d="M361.126,165.528c-21.706,3.902-47.457,4.736-76.316-1.201
								c0.092,2.623,0.298,5.297,0.591,7.975c11.804,2.314,23.087,3.532,33.812,3.903c15.111,0.522,29.096-0.642,41.778-2.843
								C361.119,170.468,361.151,167.85,361.126,165.528z"/>
						</g>
						<g>
							<path style="fill:#C927B2;" d="M360.195,152.611c-3.819-2.058-7.52-3.938-12.033-5.423l-0.01,0
								c-13.708,1.52-28.757,1.703-44.957-0.185c-5.29,1.753-9.537,4.004-12.609,5.949c10.023,1.733,19.669,2.682,28.902,3.001
								c14.726,0.509,28.391-0.589,40.819-2.674C360.235,152.834,360.195,152.611,360.195,152.611z"/>
						</g>
					</g>
					<path style="opacity:0.32;fill:#660E54;" d="M366.966,242.348c0,0-27.279,8.255-56.304,5.74
						c1.78-1.903,3.353-3.958,4.579-6.275c1.02-1.929,1.78-4.137,1.334-6.271c-0.761-3.618-4.61-5.648-8.178-6.648
						c-3.558-0.999-7.495-1.598-10.131-4.192c-2.952-2.904-3.394-7.677-2.055-11.598c1.339-3.921,4.157-7.146,7.07-10.089
						c1.477-1.49,3.03-2.977,3.953-4.862c1.276-2.643,1.16-5.709,1.165-8.637c0.018-10.833,2.173-21.651,6.294-31.659
						c-6.442-1.956-10.764-5.659-13.273-10.233c0.576-0.211,1.17-0.422,1.774-0.622c4.803-1.606,10.449-2.788,16.849-2.952
						c13.07-0.329,21.461,0.963,28.108,3.137l0.01,0c4.513,1.485,8.214,3.365,12.033,5.423c0,0,0.04,0.223,0.112,0.668
						c0.226,1.549,0.754,5.785,0.819,12.249c0.026,2.322-0.007,4.94-0.136,7.834c-0.158,3.75-0.487,7.957-1.041,12.57
						c-0.319,2.551-0.691,5.225-1.163,8.011c-0.488,2.969-1.086,6.068-1.785,9.299c0,0,0.508,1.173,1.296,3.175
						c0.726,1.836,1.688,4.382,2.712,7.345c1.19,3.469,2.466,7.52,3.525,11.707c0.636,2.487,1.194,5.03,1.609,7.519
						C366.705,236.262,367.018,239.451,366.966,242.348z"/>
				</g>
				<g>
					<path style="fill:#FF45D4;" d="M343.535,142.27c-0.106,3.068-3.983,9.377-17.613,10.303c-0.608,0.046-1.245,0.082-1.891,0.098
						c-17.622,0.508-19.504-5.489-18.672-10.92c0.785-5.154-0.899-5.761-0.163-8.394c0.043-0.133,0.087-0.286,0.14-0.438
						c1.75-4.938,9.663-0.947,16.677-1.321c7.014-0.384,11.886-3.143,16.105-4.288c4.209-1.135,3.318,5.44,3.531,8.471
						C341.885,139.016,343.64,139.221,343.535,142.27z"/>
					<g>
						<g>
							<path style="fill:#C927B2;" d="M312.004,152.999c-0.558-0.019-1.078-0.363-1.295-0.916c-1.527-3.891-1.421-6.48-1.327-8.764
								c0.061-1.484,0.118-2.886-0.264-4.608c-0.531-2.393-0.291-4.019,0.736-4.969c0.858-0.795,2.008-0.819,2.734-0.599
								c0.763,0.232,1.193,1.039,0.961,1.802c-0.227,0.744-1,1.172-1.746,0.976c-0.063,0.2-0.169,0.798,0.134,2.164
								c0.464,2.09,0.396,3.748,0.331,5.352c-0.09,2.194-0.176,4.266,1.129,7.591c0.291,0.742-0.074,1.58-0.816,1.871
								C312.391,152.974,312.195,153.006,312.004,152.999z"/>
						</g>
						<g>
							<path style="fill:#C927B2;" d="M320.336,154.124c-0.644-0.022-1.216-0.477-1.359-1.135c-0.738-3.369-0.851-5.919-0.942-7.968
								c-0.085-1.917-0.152-3.43-0.658-5.033c-1.456-4.608,0.405-5.712,1.01-5.941c0.746-0.282,1.579,0.094,1.861,0.84
								c0.233,0.616,0.018,1.29-0.484,1.666c-0.056,0.204-0.157,0.907,0.367,2.566c0.62,1.965,0.699,3.73,0.789,5.775
								c0.09,2.04,0.193,4.351,0.877,7.479c0.171,0.778-0.322,1.548-1.101,1.719C320.575,154.117,320.454,154.128,320.336,154.124z
								 M319.41,136.746c0,0-0.001,0.001-0.002,0.001C319.409,136.747,319.41,136.747,319.41,136.746z M319.412,136.746
								C319.412,136.746,319.412,136.746,319.412,136.746C319.412,136.746,319.412,136.746,319.412,136.746z M319.413,136.745
								L319.413,136.745L319.413,136.745z"/>
						</g>
						<g>
							<path style="fill:#C927B2;" d="M328.868,153.581c-0.016-0.001-0.032-0.002-0.048-0.003c-0.795-0.053-1.397-0.742-1.343-1.538
								c0.185-2.747-0.216-4.817-0.641-7.01c-0.308-1.589-0.626-3.232-0.699-5.118c-0.11-2.865-0.506-3.789-0.597-3.967
								c-0.451-0.503-0.5-1.271-0.077-1.831c0.479-0.637,1.384-0.766,2.021-0.285c0.895,0.674,1.412,2.683,1.539,5.972
								c0.064,1.665,0.348,3.13,0.648,4.68c0.441,2.277,0.897,4.632,0.686,7.753C330.305,153.015,329.643,153.608,328.868,153.581z
								 M325.748,136.136l0.009,0L325.748,136.136z M325.745,136.135L325.745,136.135L325.745,136.135z M325.522,135.913
								L325.522,135.913L325.522,135.913z"/>
						</g>
						<g>
							<path style="fill:#C927B2;" d="M336.194,151.74c-0.223-0.008-0.447-0.068-0.655-0.184c-0.695-0.39-0.943-1.27-0.552-1.965
								c1.79-3.191,0.938-6.023,0.115-8.761c-0.454-1.508-0.882-2.932-0.833-4.339c0.041-1.178-0.159-1.656-0.247-1.808
								c-0.666-0.05-1.229-0.559-1.322-1.247c-0.106-0.79,0.448-1.517,1.238-1.624c0.522-0.068,1.317,0.069,1.982,0.672
								c0.886,0.802,1.301,2.184,1.235,4.106c-0.032,0.932,0.33,2.134,0.713,3.408c0.904,3.005,2.028,6.745-0.362,11.006
								C337.231,151.49,336.717,151.758,336.194,151.74z M334.322,134.673c0,0-0.001,0-0.001,0
								C334.322,134.673,334.322,134.673,334.322,134.673z"/>
						</g>
					</g>
					<path style="opacity:0.32;fill:#44243C;" d="M343.535,142.27c-0.106,3.068-3.983,9.377-17.613,10.303
						c-0.227-2.627-0.454-5.255-0.836-7.858c-0.17-1.219-0.433-2.528-1.308-3.396c-1.146-1.118-2.937-1.132-4.531-1.264
						c-5.196-0.401-10.566-2.753-14.05-6.697c0.043-0.133,0.087-0.286,0.14-0.438c1.75-4.938,9.663-0.947,16.677-1.321
						c7.014-0.384,11.886-3.143,16.105-4.288c4.209-1.135,3.318,5.44,3.531,8.471C341.885,139.016,343.64,139.221,343.535,142.27z"
						/>
				</g>
				<g>
					<g>
						<path style="fill:#FFB42B;" d="M333.175,227.246c-4.281,8.789-1.376,22.555-7.418,32.698
							c-5.204,8.738-11.233,7.923-12.808,7.531c1.812,0.525,5.286,1.704-2.475,2.775c-0.135,0.014-0.261,0.039-0.387,0.044
							c-8.13,0.894-12.021-5.77-12.021-5.77s0.55,3.881-2.368,0.255c-0.092-0.109-0.185-0.228-0.277-0.347
							c-3.225-4.204-0.631-15.189-0.631-15.189s-1.541,1.391-2.992,1.582c-1.451,0.191-1.538-9.857,7.397-12.023
							c8.711-2.107,13.136,3.054,13.358,3.321c-3.056-2.426-7.786,2.649-4.533,6.045c0.623,0.648,1.331,1.067,2.095,1.247
							c3.238,0.767,7.476-2.602,10.339-9.639c0.021-0.057,0.052-0.123,0.074-0.18c3.533-8.603,8.504-14.238,8.504-14.238
							L333.175,227.246z"/>
						<path style="fill:#FFF0C7;" d="M310.879,253.527c-0.181,0.225-0.465,0.35-0.738,0.456c-1.661,0.694-3.331,1.378-4.992,2.062
							c0.349,1.062,1.77,1.188,2.885,1.236c1.116,0.039,2.552,0.56,2.475,1.674c-0.112,1.576-2.778,1.233-3.783,2.46
							c0.73,0.892,1.738,1.543,2.855,1.823c-1.438,0.933-3.062,2.215-2.909,3.925c0.146,1.642,1.79,2.547,3.416,3.132
							c-8.13,0.894-12.021-5.77-12.021-5.77s0.58,4.113-2.645-0.091c-3.225-4.204-3.358-15.284-3.358-15.284
							s-1.541,1.391-2.992,1.582c-1.451,0.191,1.189-9.762,10.124-11.929c8.711-2.107,13.136,3.054,13.358,3.321
							c-3.056-2.426-7.786,2.649-4.533,6.045c0.623,0.648,1.331,1.067,2.095,1.247c-0.823,0.973-1.647,1.946-1.512,1.96
							c0.654,0.032,1.336,0.085,1.872,0.46C311.012,252.203,311.291,253.021,310.879,253.527z"/>
						<path style="opacity:0.22;fill:#870707;" d="M333.175,227.246c-4.281,8.789-1.376,22.555-7.418,32.698
							c-5.204,8.738-11.233,7.923-12.808,7.531c1.812,0.525,5.286,1.704-2.475,2.775c-0.135,0.014-0.261,0.039-0.387,0.044
							c-8.13,0.894-12.021-5.77-12.021-5.77s0.55,3.881-2.368,0.255c0.813-1.792,1.048-3.864,0.565-5.778
							c6.342,4.851,16.318,4.05,21.806-1.76c5.657-5.977,4.885-11.792,2.458-17.644c3.533-8.603,8.504-14.238,8.504-14.238
							L333.175,227.246z"/>
					</g>
					<g>
						<path style="fill:#FFF0C7;" d="M395.971,148.415c-2.69,3.432-14.912,4.3-14.912,4.3c0.508,3.706-11.742,5.373-11.742,5.373
							c7.073-0.401,12.291,1.869,13.835,8.201c1.553,6.333-1.367,10.594-1.367,10.594c-1.635-3.398-6.791-9.152-7.106-9.51
							l-0.018-0.02c-2.278-2.072-9.101,0.292-10.104,7.577c-0.889,6.499-4.068,16.568-4.758,18.692
							c-0.086,0.257-0.129,0.4-0.129,0.4c12.389,6.851,1.79,24.301,1.916,25.095c0.136,0.804,4.18,0,5.196-4.626
							c1.017-4.616,6.546-5.225,8.211-2.403c1.665,2.821-3.418,6.103-9.388,11.675c-5.971,5.572-7.453,11.135-12.088,10.657
							c-4.635-0.478-3.031-5.084-4.341-4.513c-1.301,0.571-16.322,3.317-26.273-3.286c-9.941-6.603-14.202-23.767-7.716-48.735
							c6.477-24.979,17.577-25.722,23.603-37.638c6.036-11.926,9.031-15.01,9.031-15.01c4.635-13.476,11.576-23.993,14.96-21.305
							c0.656,0.523,1.034,1.576,1.218,2.931c0.679,5.156-1.5,14.702-1.839,16.154c-0.012,0.067-0.024,0.124-0.045,0.191
							c1.314-0.138,2.343,0.196,2.912,0.447c0.322,0.146,0.491,0.267,0.491,0.267s0.077-0.267,0.228-0.734
							c0.933-3.04,4.683-14.312,8.113-12.942c0.731,0.295,1.208,1.005,1.492,1.978c1.288,4.263-1.007,13.534-0.761,13.938
							c0.301,0.492,2.009,2.323,3.336,5.739c1.327,3.416,1.987,7.445,1.959,8.253c-0.004,0.115,0.041,0.213,0.144,0.294
							c0.574,0.405,2.97,0.18,8.808,0.651C395.723,141.665,398.661,144.974,395.971,148.415z"/>
						<path style="fill:#FFB42B;" d="M373.601,216.431c-1.782,1.961-4.762,4.314-7.996,7.332
							c-5.971,5.572-7.453,11.135-12.088,10.657c-4.635-0.478-3.031-5.084-4.341-4.513c-1.301,0.571-16.322,3.317-26.273-3.286
							c-9.941-6.603-14.202-23.767-7.716-48.735c6.477-24.979,17.577-25.722,23.603-37.638c6.036-11.926,9.031-15.01,9.031-15.01
							c4.582-13.314,11.414-23.749,14.837-21.387c0.047,0.021,0.085,0.051,0.122,0.081c0.656,0.523,1.034,1.576,1.218,2.931
							c0.679,5.156-1.5,14.702-1.839,16.154c-0.012,0.067-0.024,0.124-0.045,0.191c1.314-0.138,2.343,0.196,2.912,0.447
							c1.945,2.243,5.305,7.011,4.873,12.822c-0.599,8.126-8.293,2.275-14.709,16.566c-6.417,14.301-8.29,26.726-8.46,40.858
							c0,0,6.265-1.556,13.068-0.281c-0.086,0.257-0.129,0.4-0.129,0.4c8.146,4.499,6.359,13.586,4.209,19.502
							c-1.118,3.091-2.331,5.322-2.293,5.593c0.136,0.804,4.18,0,5.196-4.626c0.046-0.22,0.111-0.43,0.176-0.63
							c1.353-4.036,6.452-4.457,8.035-1.774C375.758,213.376,375.103,214.769,373.601,216.431z"/>
						<path style="fill:#FFB42B;" d="M380.029,140.449c-0.7,0.197-1.464,0.286-2.209,0.116c-2.503-0.568-2.989-2.674-5.877-9.679
							c-1.848-4.475-4.507-6.685-6.196-7.697c0.933-3.04,4.683-14.312,8.113-12.942c0.731,0.295,1.208,1.005,1.492,1.978
							c1.288,4.263-1.007,13.534-0.761,13.938c0.301,0.492,2.009,2.323,3.336,5.739c1.327,3.416,1.987,7.445,1.959,8.253
							C379.881,140.271,379.926,140.368,380.029,140.449z"/>
						<g>
							<path style="fill:#A84F27;" d="M367.009,147.838c1.093,0.676,2.206,1.279,3.316,1.864c1.12,0.569,2.252,1.097,3.414,1.538
								c1.156,0.463,2.353,0.786,3.565,1.06c1.22,0.256,2.461,0.362,3.752,0.411c-1.239,0.324-2.56,0.475-3.861,0.332
								c-1.299-0.132-2.583-0.436-3.8-0.905C370.978,151.182,368.736,149.757,367.009,147.838z"/>
						</g>
						<path style="fill:#912D1E;" d="M398.083,143.028c3.536,0.236,4.5,4.489-0.15,4.328
							C393.285,147.195,393.119,142.696,398.083,143.028z"/>
						<g>
							<path style="fill:#FF47AD;" d="M362.16,123.018c-0.012,0.067-0.024,0.124-0.045,0.191c0,0-3.608-0.645-8.302,0.31
								c0,0,4.146-19.117,8.16-18.497c0.987,0.15,1.638,0.808,2.026,1.842C364.678,112.02,362.499,121.566,362.16,123.018z"/>
							<path style="fill:#FF47AD;" d="M374.59,126.163c-2.065-0.707-5.727-1.479-5.727-1.479c0.777-3.825,2.977-15.103,5.912-13.076
								c0.216,0.152,0.411,0.361,0.576,0.617C376.639,116.488,374.344,125.759,374.59,126.163z"/>
						</g>
						<g style="opacity:0.68;">
							<path style="fill:#A84F27;" d="M346.731,193.902c-2.028,0.832-3.689,2.067-5.043,3.66c-1.366,1.577-2.454,3.387-3.524,5.29
								c0.351-2.166,1.355-4.218,2.798-5.921c0.733-0.842,1.604-1.584,2.593-2.119C344.537,194.272,345.634,193.939,346.731,193.902
								z"/>
						</g>
						<path style="opacity:0.22;fill:#870707;" d="M373.601,216.431c-1.782,1.961-4.762,4.314-7.996,7.332
							c-5.971,5.572-7.453,11.135-12.088,10.657c-4.635-0.478-3.031-5.084-4.341-4.513c-1.301,0.571-16.322,3.317-26.273-3.286
							c-9.941-6.603-14.202-23.767-7.716-48.735c6.477-24.979,17.577-25.722,23.603-37.638c6.036-11.926,9.031-15.01,9.031-15.01
							c4.582-13.314,11.414-23.749,14.837-21.387c-3.619,4.132-7.895,7.749-9.902,13.718c-2.125,6.302-2.992,13.003-5.525,19.147
							c-4.447,10.815-13.721,19.172-17.797,30.125c-4.245,11.371-2.38,24.003-0.463,35.982c2.113-1.516,5.095-1.134,7.393,0.072
							c2.308,1.207,4.149,3.109,6.203,4.702c3.789,2.943,8.384,4.845,13.14,5.462c2.704,0.344,5.46,0.285,8.17,0.465
							c1.038,0.065,2.065,0.168,3.08,0.337c0.728,0.121,1.445,0.271,2.15,0.479C370.739,214.81,372.236,215.517,373.601,216.431z"/>
					</g>
					<g>
						<path style="fill:#6B2A10;" d="M365.596,137.143c-0.039,1.122-0.567,2.014-1.18,1.993c-0.613-0.021-1.079-0.948-1.04-2.07
							c0.039-1.122,0.567-2.014,1.18-1.993C365.169,135.094,365.635,136.021,365.596,137.143z"/>
						<path style="fill:#6B2A10;" d="M378.049,137.18c-0.031,0.905-0.458,1.625-0.952,1.608c-0.495-0.017-0.87-0.765-0.839-1.67
							c0.031-0.905,0.458-1.625,0.952-1.608C377.704,135.527,378.08,136.275,378.049,137.18z"/>
					</g>
				</g>
				<g>
					<g>
						<path style="fill:#FBBE88;" d="M333.28,212.72c0,0-13.568-4.677-14.562-5c-0.993-0.323-1.843-0.113-2.399,0.234
							c-0.556,0.347-6.694,8.701-8.482,16.018c0,0,11.806,4.33,18.399,6.136C326.236,230.107,328.794,219.308,333.28,212.72z"/>
						<path style="fill:#FBBE88;" d="M318.719,207.719c0,0-2.526-4.833-1.551-6.988s5.319-0.51,5.23,1.13
							c-0.089,1.639,1.775,6.419,3.179,8.52C325.576,210.381,321.106,209.34,318.719,207.719z"/>
						<path style="fill:#FBBE88;" d="M316.866,207.692c-1.964-1.533-8.053-6.044-9.143-5.884c-1.09,0.159-3.113,2.06-3.205,3.671
							c-0.092,1.61,9.837,6.171,9.837,6.171L316.866,207.692z"/>
						<path style="fill:#FBBE88;" d="M314.438,212.948c-2.024-1.453-11.114-6.509-12.197-6.306c-1.083,0.203-2.81,2.47-2.837,4.083
							c-0.027,1.613,12.685,6.278,12.685,6.278L314.438,212.948z"/>
						<path style="fill:#FBBE88;" d="M312.295,217.439c-1.955-1.081-10.583-4.63-11.526-4.335c-0.944,0.295-2.244,2.495-2.098,3.935
							c0.145,1.439,11.958,4.259,11.958,4.259L312.295,217.439z"/>
						<path style="fill:#FBBE88;" d="M310.212,221.465c-1.739-0.875-9.418-3.739-10.26-3.496c-0.842,0.243-2.008,2.04-1.882,3.212
							c0.125,1.172,10.645,3.433,10.645,3.433L310.212,221.465z"/>
					</g>
					<path style="fill:#FF45D4;" d="M387.684,244.498c-1.85,0.851-3.895,1.531-6.118,2.033c-4.311,1.007-9.293,1.393-14.788,1.29
						c-3.734-0.062-7.363-0.399-10.831-0.923c-1.974-0.299-3.897-0.655-5.761-1.066c-5.563-1.203-10.582-2.831-14.83-4.47
						c-1.967-0.761-3.78-1.517-5.392-2.257c-5.671-2.555-9.006-4.683-9.006-4.683s0.887-3.109,2.407-7.506
						c1.947-5.615,4.92-13.341,8.391-19.337c0.584-1.029,1.186-2.001,1.805-2.904c0,0,2.424,1.471,6.031,3.261
						c1.562,0.767,3.354,1.599,5.262,2.406c2.696,1.133,5.635,2.198,8.546,2.953c1.938,0.5,3.861,0.856,5.686,0.986
						c1.287,0.093,2.52,0.087,3.681-0.066c0.31-0.037,0.62-0.094,0.92-0.151c3.811-0.754,4.162-2.832,2.992-5.212
						c-0.233-0.49-0.544-0.982-0.892-1.485c-0.018-0.03-0.036-0.059-0.055-0.089c-0.064-0.089-0.129-0.178-0.203-0.267
						c0.12-0.969,0.182-1.939,0.158-2.903c-0.02-0.53-0.06-1.061-0.128-1.584c-0.192-1.403-0.598-2.765-1.286-4.022
						c-0.607-1.119-1.437-2.168-2.552-3.083c-0.599-0.512-1.285-0.979-2.051-1.4c0,0,0.043-0.143,0.129-0.4
						c0.344-1.047,1.295-4.038,2.275-7.587c1.002-3.625,2.032-7.817,2.483-11.105c0.899-6.508,6.429-9.09,9.226-8.089
						c0.333,0.117,0.635,0.292,0.878,0.512c0.092,0.109,0.185,0.218,0.268,0.327c0.323,0.396,0.656,0.803,0.988,1.219
						c0.304,0.386,0.628,0.792,0.941,1.198c0.019,0.02,0.028,0.04,0.046,0.059c0.341,0.436,0.673,0.871,1.004,1.316
						c1.289,1.701,2.585,3.508,3.877,5.411c2.483,3.678,4.933,7.73,7.217,12.152c0.866,1.686,1.702,3.42,2.507,5.2
						c1.575,3.473,3.008,7.144,4.262,10.991c0.94,2.902,1.693,5.634,2.259,8.196c0.542,2.426,0.916,4.702,1.132,6.828
						C400.472,233.085,396.07,240.637,387.684,244.498z"/>
					<g>
						<g>
							<path style="fill:#C927B2;" d="M344.853,210.344c-2.827,7.674-6.489,18.632-9.498,31.018
								c-1.967-0.761-3.78-1.517-5.392-2.257c3.08-12.499,6.792-23.504,9.628-31.168
								C341.154,208.704,342.945,209.536,344.853,210.344z"/>
						</g>
						<g>
							<path style="fill:#C927B2;" d="M359.085,214.283c-1.825-0.13-3.749-0.486-5.686-0.986c-0.762,3.932-1.342,8.178-1.661,10.728
								c-0.611,4.871-1.427,12.865-1.552,21.807c1.864,0.411,3.787,0.766,5.761,1.066
								C356.053,234.036,357.688,221.573,359.085,214.283z"/>
						</g>
						<g>
							<path style="fill:#C927B2;" d="M387.684,244.498c-1.85,0.851-3.895,1.531-6.118,2.033
								c-9.385-9.896-16.084-25.344-18.799-32.313c0.31-0.037,0.62-0.094,0.92-0.151c3.811-0.754,4.162-2.832,2.992-5.212
								c-0.252-0.519-0.58-1.051-0.956-1.584c0.528,0.326,0.953,0.842,1.172,1.485C366.99,209.028,375.425,233.327,387.684,244.498z
								"/>
						</g>
						<g>
							<path style="fill:#C927B2;" d="M399.162,220.251c-9.6-4.492-22.967-8.671-32.207-11.32c-0.095-0.023-0.181-0.054-0.277-0.077
								c-0.243-0.48-0.544-0.982-0.892-1.485c-0.018-0.03-0.036-0.059-0.055-0.089c-0.064-0.089-0.129-0.178-0.203-0.267
								c0.12-0.969,0.182-1.939,0.158-2.903c-0.02-0.53-0.06-1.061-0.128-1.584c0.859,0.232,1.764,0.494,2.718,0.768
								c8.335,2.368,20.103,6.01,29.754,10.128C398.573,215.849,398.947,218.125,399.162,220.251z"/>
						</g>
						<g>
							<path style="fill:#C927B2;" d="M376.904,170.156c-0.332-0.426-0.664-0.851-0.987-1.257c-0.332-0.416-0.665-0.822-0.988-1.219
								c-0.083-0.109-0.175-0.218-0.268-0.327c-0.231-0.287-0.471-0.575-0.703-0.852c-0.052,0.114-0.114,0.227-0.176,0.341
								c-2.813,5.604-6.747,12.71-11.709,19.193c-0.98,3.549-1.93,6.54-2.275,7.587c-0.086,0.257-0.129,0.4-0.129,0.4
								c0.766,0.421,1.452,0.888,2.051,1.4c6.991-7.511,12.411-16.675,16.187-23.95
								C377.577,171.027,377.245,170.592,376.904,170.156z"/>
						</g>
						<g>
							<path style="fill:#C927B2;" d="M391.509,194.235c-5.697,2.683-13.398,5.932-23.233,9.059
								c-0.848,0.279-1.714,0.548-2.59,0.816c-0.02-0.53-0.06-1.061-0.128-1.584c-0.192-1.403-0.598-2.765-1.286-4.022
								c10.59-3.246,18.788-6.67,24.73-9.469C389.868,190.721,390.704,192.455,391.509,194.235z"/>
						</g>
					</g>
					<path style="opacity:0.32;fill:#660E54;" d="M374.623,214.155c-2.841,4.457-8.607,6.068-13.889,6.194
						c-10.901,0.259-21.738-4.661-28.979-12.769c0.584-1.029,1.186-2.001,1.805-2.904c0,0,2.424,1.471,6.031,3.261
						c1.562,0.767,3.354,1.599,5.262,2.406c2.696,1.133,5.635,2.198,8.546,2.953c1.938,0.5,3.861,0.856,5.686,0.986
						c1.287,0.093,2.52,0.087,3.681-0.066c0.31-0.037,0.62-0.094,0.92-0.151c3.811-0.754,4.162-2.832,2.992-5.212
						c-0.233-0.49-0.544-0.982-0.892-1.485c-0.018-0.03-0.036-0.059-0.055-0.089c-0.064-0.089-0.129-0.178-0.203-0.267
						c0.12-0.969,0.182-1.939,0.158-2.903c-0.02-0.53-0.06-1.061-0.128-1.584c-0.192-1.403-0.598-2.765-1.286-4.022
						c-0.607-1.119-1.437-2.168-2.552-3.083c-0.599-0.512-1.285-0.979-2.051-1.4c0,0,0.043-0.143,0.129-0.4
						c0.344-1.047,1.295-4.038,2.275-7.587c1.002-3.625,2.032-7.817,2.483-11.105c0.899-6.508,6.429-9.09,9.226-8.089
						c0.333,0.117,0.635,0.292,0.878,0.512c0.092,0.109,0.185,0.218,0.268,0.327c0.323,0.396,0.656,0.803,0.988,1.219
						c0.304,0.386,0.628,0.792,0.941,1.198c-1.762,0.825-3.289,2.111-4.398,4.365c-2.06,4.157-2.092,8.999-3.363,13.453
						c-0.438,1.516-1.022,3.114-0.574,4.622c0.353,1.206,1.303,2.135,2.167,3.051C375.372,200.554,378.289,208.407,374.623,214.155z
						"/>
				</g>
			</g>
			<g>
				<g>
					<path style="fill:#FBBE88;" d="M338.83,120.597c0,0-0.66,3.483-0.178,8.411c0.092,0.94-0.332,1.854-1.108,2.391
						c-1.916,1.324-6.07,3.528-12.918,3.956c-6.643,0.415-11.595-0.55-14.143-1.233c-1.131-0.303-1.907-1.335-1.911-2.507
						c-0.006-1.786-0.071-4.599-0.362-7.42C308.21,124.194,324.152,127.313,338.83,120.597z"/>
					<path style="opacity:0.46;fill:#C45D54;" d="M338.83,120.597c0,0-0.66,3.483-0.178,8.411c0.092,0.94-0.332,1.854-1.108,2.391
						c-1.916,1.324-6.07,3.528-12.918,3.956c-6.643,0.415-11.595-0.55-14.143-1.233c-1.131-0.303-1.907-1.335-1.911-2.507
						c-0.006-1.786-0.071-4.599-0.362-7.42C308.21,124.194,324.152,127.313,338.83,120.597z"/>
				</g>
				<g>
					<g>
						<path style="fill:#FBBE88;" d="M350.041,111.996c-1.872,7.639-8.715,6.122-8.715,6.122
							c-4.042,12.197-26.647,15.624-40.804,11.447c-4.07-1.21-7.445-3.04-9.48-5.479c-7.259-8.706-3.851-24.295-2.181-30.247
							c0.428-1.507,0.737-2.392,0.737-2.392c6.197,1.822,9.865-2.067,9.865-2.067s1.207,2.132,6.973,2.494
							c5.766,0.353,11.473-2.339,11.473-2.339c5.02,3.544,12.023,0.415,12.023,0.415c2.443,12.931,9.384,11.88,9.384,11.88
							c-1.687,7.01,2.685,8.144,2.789,7.646C343.831,101.352,351.913,104.357,350.041,111.996z"/>
						<path style="opacity:0.32;fill:#C45D54;" d="M350.041,111.996c-1.872,7.639-8.715,6.122-8.715,6.122
							c-4.042,12.197-26.647,15.624-40.804,11.447c2.008-0.133,4.042-0.188,5.992-0.342c5.36-0.451,10.809-2.073,14.787-5.701
							c3.968-3.628,6.117-9.544,4.289-14.596c-1.17-3.209-3.822-6.17-3.215-9.52c-3.021,0.743-6.443-0.54-8.214-3.096
							c1.292,1.903-11.315,1.391-12.519,0.839c-3.251-1.499-2.794-1.647-6.016-2.047c-1.956-0.241-3.546,0.609-5.514-0.412
							c-0.445-0.227-0.859-0.511-1.251-0.852c0.428-1.507,0.737-2.392,0.737-2.392c6.197,1.822,9.865-2.067,9.865-2.067
							s1.207,2.132,6.973,2.494c5.766,0.353,11.473-2.339,11.473-2.339c5.02,3.544,12.023,0.415,12.023,0.415
							c2.443,12.931,9.384,11.88,9.384,11.88c-1.687,7.01,2.685,8.144,2.789,7.646C343.831,101.352,351.913,104.357,350.041,111.996
							z"/>
						<path style="fill:#EF6767;" d="M346.351,108.176c1.651,0.701,1.271,5.02-0.973,4.942
							C343.134,113.04,344.295,107.302,346.351,108.176z"/>
					</g>
					<g>
						<g>
							<g style="opacity:0.89;">
								<path style="fill:none;stroke:#6B2A10;stroke-width:1.7324;stroke-linecap:round;stroke-miterlimit:10;" d="
									M318.935,106.428c0,0,2.129-5.865,7.076-5.052c4.948,0.813,5.229,6.601,5.229,6.601"/>
								<path style="fill:none;stroke:#6B2A10;stroke-width:1.7324;stroke-linecap:round;stroke-miterlimit:10;" d="
									M290.728,104.811c0,0,1.882-5.186,6.257-4.467c4.375,0.719,4.624,5.837,4.624,5.837"/>
							</g>
							<path style="fill:none;stroke:#6B2A10;stroke-width:0.9624;stroke-linecap:round;stroke-miterlimit:10;" d="M300.499,110.446
								c0,0,8.285,6.407,21.982,0.208"/>
							<path style="fill:#EF6767;" d="M312.484,100.347c1.905,0.066,0.13,5.542-1.775,7.242c-1.904,1.7-5.71-1.963-4.624-3.209
								c1.086-1.246,2.581-0.361,3.705-0.378C310.914,103.984,311.362,100.308,312.484,100.347z"/>
						</g>
						<g style="opacity:0.57;">
							<path style="fill:#EF6767;" d="M292.862,109.992c-0.629,0.856-1.529,1.262-2.011,0.908c-0.482-0.354-0.363-1.335,0.266-2.191
								c0.629-0.856,1.529-1.262,2.011-0.908C293.611,108.155,293.491,109.136,292.862,109.992z"/>
							<path style="fill:#EF6767;" d="M289.015,109.859c-0.629,0.856-1.529,1.262-2.011,0.908c-0.482-0.354-0.363-1.335,0.266-2.191
								c0.629-0.856,1.529-1.262,2.011-0.908C289.763,108.022,289.644,109.003,289.015,109.859z"/>
							<path style="fill:#EF6767;" d="M336.602,111.709c-0.69,0.939-1.678,1.385-2.207,0.997c-0.529-0.389-0.398-1.465,0.292-2.404
								c0.69-0.939,1.678-1.385,2.207-0.997C337.423,109.693,337.292,110.77,336.602,111.709z"/>
							<path style="fill:#EF6767;" d="M332.379,111.563c-0.69,0.939-1.678,1.386-2.207,0.997c-0.529-0.389-0.398-1.465,0.292-2.404
								c0.69-0.939,1.678-1.385,2.207-0.997C333.2,109.547,333.069,110.624,332.379,111.563z"/>
						</g>
						<g>
							<path style="fill:#A84F27;" d="M323.32,94.007c0.006,0.139,0.023,0.292,0.053,0.458c0.105,0.576,0.619,0.989,1.205,0.984
								c0.996-0.008,2.686,0.107,4.325,0.815c0.531,0.229,1.16,0.067,1.476-0.417c0.029-0.045,0.058-0.091,0.086-0.139
								c0.315-0.531,0.174-1.224-0.33-1.582c-0.883-0.628-2.685-1.515-5.66-1.333C323.83,92.834,323.29,93.362,323.32,94.007z"/>
							<path style="fill:#A84F27;" d="M298.856,94.527c-0.016,0.139-0.043,0.29-0.085,0.454c-0.144,0.568-0.686,0.944-1.27,0.899
								c-0.993-0.076-2.687-0.078-4.371,0.515c-0.545,0.192-1.162-0.013-1.444-0.518c-0.026-0.047-0.052-0.095-0.077-0.144
								c-0.278-0.552-0.089-1.233,0.438-1.555c0.925-0.565,2.783-1.326,5.739-0.939C298.428,93.322,298.931,93.885,298.856,94.527z"
								/>
						</g>
					</g>
				</g>
			</g>
		</g>
	</g>
	<g>
		<path style="fill:#FF47AD;" d="M277.279,73.37c0,0-12.438-9.578-8.618-12.817c3.819-3.239,6.907,3.609,6.907,3.609
			s1.021-9.595,6.098-5.568C286.742,62.622,277.279,73.37,277.279,73.37z"/>
		<path style="fill:#FF47AD;" d="M369.585,103.786c0,0-5.403-16.157-0.458-17.281c4.945-1.124,4.121,6.551,4.121,6.551
			s4.329-7.648,7.411-1.235C383.741,98.233,369.585,103.786,369.585,103.786z"/>
	</g>
	<g>
		<path style="fill:#5F499B;" d="M431.235,474.641c0,3.127-2.307,5.663-5.154,5.663c-2.846,0-5.154-2.535-5.154-5.663
			c0-3.127,2.307-5.662,5.154-5.662C428.928,468.978,431.235,471.513,431.235,474.641z"/>
		<path style="fill:#5F499B;" d="M467.493,463.316c0,3.127-2.307,5.662-5.154,5.662c-2.846,0-5.154-2.535-5.154-5.662
			c0-3.127,2.308-5.662,5.154-5.662C465.185,457.653,467.493,460.189,467.493,463.316z"/>
		<polygon style="fill:#5F499B;" points="389.899,455.762 394.062,469.309 400.307,470.87 401.869,456.558 		"/>
		<path style="fill:#FF45D4;" d="M428.841,471.398c0,0-2.412,4.108-33.713-9.358c-6.28-2.702-10.348-8.887-10.348-15.723v-75.692
			c0-7.515,5.462-13.916,12.884-15.098l33.366-5.314c2.429-0.387,4.907-0.345,7.321,0.124l27.783,5.393c0,0,6.414,2.051,9.216,9.115
			L428.841,471.398z"/>
		<path style="fill:#D82AB7;" d="M419.91,462.498v-88.993c0-4.379,3.187-8.107,7.514-8.788l38.057-5.985
			c5.397-0.849,10.277,3.324,10.277,8.788v83.323c0,3.909-2.553,7.361-6.291,8.506l-38.057,11.655
			C425.693,472.754,419.91,468.478,419.91,462.498z"/>
		<g>
			<path style="fill:#FFFFFF;" d="M401.869,466.778c-1.063,0-1.925-0.862-1.925-1.925v-93.904c0-6.004,4.291-11.123,10.203-12.172
				l42.387-7.518c1.053-0.183,2.046,0.514,2.232,1.559c0.185,1.047-0.513,2.046-1.559,2.232l-42.387,7.518
				c-4.072,0.721-7.026,4.246-7.026,8.38v93.904C403.794,465.916,402.932,466.778,401.869,466.778z"/>
		</g>
		<g>
			<path style="fill:#5F499B;" d="M400.958,360.547c-1.063,0-1.925-0.862-1.925-1.925v-69.864l30.262-2.118v66.514
				c0,1.063-0.862,1.925-1.925,1.925c-1.063,0-1.925-0.862-1.925-1.925v-62.386l-22.562,1.58v66.273
				C402.883,359.685,402.021,360.547,400.958,360.547z"/>
		</g>
		<path style="fill:#7E73FE;" d="M395.918,290.295v0.328c0,2.901,2.466,5.19,5.359,4.974l26.517-1.98
			c2.603-0.194,4.616-2.363,4.616-4.974l0,0c0-2.876-2.427-5.157-5.298-4.978l-26.517,1.651
			C397.966,285.481,395.918,287.661,395.918,290.295z"/>
	</g>
	<g>
		<text transform="matrix(1 0 0 1 71.0845 177.8404)" style="fill:#FF45D4; font-family:'Amatic-Bold'; font-size:50.3088px;">Never leave  </text>
		<text transform="matrix(1 0 0 1 79.4899 238.5355)" style="fill:#7E73FE; font-family:'Amatic-Bold'; font-size:69.5897px;">your pet</text>
		<g>
			<text transform="matrix(1 0 0 1 101.5788 283.8059)" style="fill:#FF45D4; font-family:'Amatic-Bold'; font-size:50.3088px;">behind</text>
		</g>
	</g>
</g>
</svg>
